<!DOCTYPE svg PUBLIC "-//W3C//DTD SVG 1.1//EN" "http://www.w3.org/Graphics/SVG/1.1/DTD/svg11.dtd">
<!-- Uploaded to: SVG Repo, www.svgrepo.com, Transformed by: SVG Repo Mixer Tools -->
<svg width="64px" height="64px" viewBox="0 0 32 32" xmlns="http://www.w3.org/2000/svg" fill="#000000" transform="matrix(1, 0, 0, 1, 0, 0)">
<g id="SVGRepo_bgCarrier" stroke-width="0"/>
<g id="SVGRepo_tracerCarrier" stroke-linecap="round" stroke-linejoin="round" stroke="#CCCCCC" stroke-width="0.32"/>
<g id="SVGRepo_iconCarrier"> <defs> <style>.cls-1{fill:#ff2424;}.cls-2{fill:#c20000;}</style> </defs> <title/> <g id="Love"> <path class="cls-1" d="M27,6.25A7.93,7.93,0,0,0,16,6,7.94,7.94,0,0,0,5,17.48l10.3,10.3a1,1,0,0,0,1.42,0L27,17.48A7.93,7.93,0,0,0,27,6.25Z"/> <path class="cls-2" d="M16.71,27.78,27,17.48A7.94,7.94,0,0,0,16,6v22A1,1,0,0,0,16.71,27.78Z"/> </g> </g>
</svg>