<!DOCTYPE svg PUBLIC "-//W3C//DTD SVG 1.1//EN" "http://www.w3.org/Graphics/SVG/1.1/DTD/svg11.dtd">
<!-- Uploaded to: SVG Repo, www.svgrepo.com, Transformed by: SVG Repo Mixer Tools -->
<svg height="64px" width="64px" version="1.1" id="Layer_1" xmlns="http://www.w3.org/2000/svg" xmlns:xlink="http://www.w3.org/1999/xlink" viewBox="0 0 460 460" xml:space="preserve" fill="#000000">
<g id="SVGRepo_bgCarrier" stroke-width="0"/>
<g id="SVGRepo_tracerCarrier" stroke-linecap="round" stroke-linejoin="round" stroke="#CCCCCC" stroke-width="4.6"/>
<g id="SVGRepo_iconCarrier"> <g id="XMLID_3207_"> <path id="XMLID_1314_" style="fill:#C7D6D8;" d="M370,30v310c0,16.569-13.431,30-30,30h-80v40c0,11.046-8.954,20-20,20v30h-20v-30 c-11.046,0-20-8.954-20-20v-40h-80c-16.569,0-30-13.431-30-30V30c0-16.569,13.431-30,30-30h220C356.569,0,370,13.431,370,30z"/> <path id="XMLID_1321_" style="fill:#BCC8C9;" d="M200,370h30v60v30h-10v-30c-11.046,0-20-8.954-20-20V370z"/> <path id="XMLID_1340_" style="fill:#D5E2E2;" d="M150,40c-11.046,0-20,8.954-20,20v280c0,16.569,13.431,30,30,30h-40 c-16.569,0-30-13.431-30-30V30c0-16.569,13.431-30,30-30h10h30h180c16.569,0,30,13.431,30,30v10H150z"/> <path id="XMLID_1341_" style="fill:#BCC8C9;" d="M370,30v310c0,16.569-13.431,30-30,30h-40c16.569,0,30-13.431,30-30V30 c0-16.569-13.431-30-30-30h40C356.569,0,370,13.431,370,30z"/> <path id="XMLID_1402_" style="fill:#ABB7B7;" d="M200,370h60v10h-60V370z"/> <path id="XMLID_1422_" style="fill:#B8BFC1;" d="M230,370h30v10h-30V370z"/> <path id="XMLID_1342_" style="fill:#C92323;" d="M330,180v40v50v55c0,8.284-6.716,15-15,15h-85h-85c-8.284,0-15-6.716-15-15v-55 v-50v-40h100H330z"/> <path id="XMLID_1343_" style="fill:#D83427;" d="M330,170v90H230v80h-85c-8.284,0-15-6.716-15-15V170h100H330z"/> <path id="XMLID_1359_" style="fill:#D84C30;" d="M230,260H130v-90h100V260z"/> <path id="XMLID_2498_" style="fill:#F49464;" d="M330,210H130v-50h200V210z"/> <path id="XMLID_2499_" style="fill:#E57C53;" d="M330,210H230v-50h100V210z"/> </g> </g>
</svg>