<?xml version="1.0" standalone="no"?>
<!DOCTYPE svg PUBLIC "-//W3C//DTD SVG 20010904//EN"
 "http://www.w3.org/TR/2001/REC-SVG-20010904/DTD/svg10.dtd">
<svg version="1.0" xmlns="http://www.w3.org/2000/svg"
 width="685.000000pt" height="769.000000pt" viewBox="0 0 685.000000 769.000000"
 preserveAspectRatio="xMidYMid meet">
<metadata>
Created by potrace 1.16, written by Peter Selinger 2001-2019
</metadata>
<g transform="translate(0.000000,769.000000) scale(0.100000,-0.100000)"
fill="#000000" stroke="none">
<path d="M1675 6041 c-3 -2 -5 -42 -5 -88 0 -76 -2 -83 -20 -83 -11 0 -20 7
-20 15 0 18 -55 21 -66 4 -10 -18 30 -62 64 -71 45 -12 99 12 109 49 4 15 8
62 8 103 l0 75 -33 0 c-18 1 -35 -1 -37 -4z"/>
<path d="M1803 6044 c-20 -8 -17 -163 2 -191 19 -27 85 -47 126 -38 15 4 40
20 54 37 24 28 26 37 23 112 l-3 81 -30 0 c-30 -1 -30 -1 -33 -65 -3 -88 -8
-107 -31 -113 -38 -10 -50 13 -53 98 -3 72 -5 80 -23 82 -11 1 -26 -1 -32 -3z"/>
<path d="M2090 6032 c-27 -13 -36 -24 -38 -49 -4 -36 24 -61 81 -72 44 -9 50
-41 8 -41 -17 0 -31 4 -31 9 0 11 -38 21 -56 14 -20 -8 -17 -27 9 -50 62 -57
177 -26 177 48 0 22 -8 34 -32 49 -18 11 -42 20 -53 20 -11 0 -27 5 -35 10
-13 9 -13 11 -1 19 9 6 26 4 47 -6 53 -26 87 4 47 39 -30 26 -84 30 -123 10z"/>
<path d="M2254 6035 c-11 -26 4 -45 35 -45 l30 0 3 -87 3 -88 29 -3 c40 -5 47
11 45 97 -1 41 2 76 7 77 5 1 22 5 37 8 22 5 28 12 25 29 -3 21 -8 22 -106 25
-85 2 -103 0 -108 -13z"/>
<path d="M2652 6039 c-65 -19 -92 -111 -52 -176 37 -62 146 -65 186 -6 16 25
16 27 -2 40 -25 18 -37 16 -52 -7 -14 -22 -51 -27 -70 -8 -7 7 -12 24 -12 39
0 65 33 90 75 57 22 -17 31 -19 51 -9 21 9 23 13 12 31 -14 21 -67 51 -90 49
-7 0 -28 -5 -46 -10z"/>
<path d="M2834 6037 c-2 -7 -3 -60 -2 -118 l3 -104 85 0 85 0 0 30 c0 29 -1
30 -50 30 l-50 0 -5 84 c-5 83 -5 84 -33 88 -17 2 -29 -2 -33 -10z"/>
<path d="M3044 6037 c-2 -7 -3 -60 -2 -118 l3 -104 30 0 30 0 0 114 0 114 -28
4 c-17 2 -29 -2 -33 -10z"/>
<path d="M3255 6042 c-55 -8 -67 -15 -85 -45 -23 -38 -26 -87 -6 -125 35 -68
151 -77 191 -15 17 25 17 27 -1 40 -25 18 -37 16 -52 -7 -14 -22 -51 -27 -70
-8 -16 16 -16 80 0 96 17 17 48 15 69 -4 11 -10 25 -13 38 -9 59 18 -17 89
-84 77z"/>
<path d="M3405 6042 c-10 -10 -5 -221 6 -227 5 -4 21 -4 35 -1 18 5 24 13 24
35 0 31 25 60 40 45 4 -5 17 -25 27 -44 17 -30 25 -35 56 -35 21 -1 37 3 37 8
0 5 -16 35 -35 67 -19 32 -35 62 -35 67 0 5 16 24 35 43 19 18 32 36 30 39 -3
3 -21 5 -41 6 -29 0 -42 -6 -70 -37 -19 -21 -36 -38 -38 -38 -3 0 -6 17 -8 37
-3 33 -6 37 -30 38 -15 1 -30 0 -33 -3z"/>
<path d="M3824 6029 c-10 -11 -31 -27 -46 -35 -17 -9 -28 -23 -28 -35 0 -21 9
-22 52 -4 15 6 17 -2 20 -67 3 -70 4 -73 28 -73 l25 0 0 115 c0 96 -3 115 -16
118 -8 1 -24 -7 -35 -19z"/>
<path d="M4072 6042 c-9 -6 -12 -37 -10 -118 3 -109 3 -109 28 -109 24 0 25 3
30 70 l5 70 13 -56 c16 -71 32 -94 59 -85 16 5 23 21 33 69 19 90 24 91 30 7
5 -72 6 -75 30 -75 l25 0 0 115 0 115 -45 0 -44 0 -20 -65 -20 -65 -13 50 c-8
28 -17 57 -22 65 -9 17 -59 25 -79 12z"/>
<path d="M4430 6043 c-61 -20 -90 -57 -90 -115 0 -108 134 -154 210 -73 31 33
33 113 4 146 -32 36 -87 55 -124 42z"/>
<path d="M4623 6043 c-9 -3 -13 -36 -13 -114 0 -107 0 -109 24 -115 36 -9 46
2 46 47 0 53 22 51 52 -3 17 -31 30 -44 48 -45 46 -3 52 3 34 39 -9 18 -23 40
-31 50 -12 14 -13 17 0 25 47 28 39 93 -14 112 -32 11 -123 14 -146 4z"/>
<path d="M4863 6044 c-9 -4 -13 -37 -13 -115 0 -126 -4 -122 115 -117 67 3 70
4 70 28 0 27 -1 27 -70 29 -38 1 -45 4 -45 20 0 17 8 20 53 23 48 3 52 5 52
28 0 23 -4 25 -49 28 -82 4 -79 21 5 25 50 2 54 4 54 27 0 24 -2 25 -80 27
-44 1 -86 -1 -92 -3z"/>
<path d="M1170 5643 c-29 -11 -50 -36 -50 -60 0 -27 44 -58 97 -68 28 -5 34
-10 31 -28 -4 -31 -52 -36 -68 -8 -6 12 -19 21 -30 21 -44 0 -35 -53 12 -69
79 -28 148 2 148 65 0 36 -14 47 -95 71 -37 11 -41 39 -5 36 14 -1 40 -5 58
-9 30 -6 33 -4 30 12 -6 34 -80 55 -128 37z"/>
<path d="M1357 5643 c-2 -5 -5 -56 -6 -115 l-1 -108 95 0 c88 0 95 1 95 20 0
18 -7 20 -60 20 l-60 0 0 30 c0 30 1 30 55 30 48 0 55 2 55 20 0 18 -7 20 -55
20 -52 0 -55 1 -55 25 0 24 3 25 60 25 53 0 60 2 60 20 0 19 -7 20 -89 20 -50
0 -92 -3 -94 -7z"/>
<path d="M1581 5535 l0 -115 90 0 c88 0 89 0 89 25 0 24 -3 25 -55 25 l-55 0
0 90 0 90 -35 0 -35 0 1 -115z"/>
<path d="M1810 5535 l0 -115 30 0 c29 0 30 1 30 50 l0 50 45 0 c38 0 45 3 45
20 0 17 -7 20 -45 20 -41 0 -45 2 -45 25 0 23 3 25 50 25 43 0 50 3 50 20 0
18 -7 20 -80 20 l-80 0 0 -115z"/>
<path d="M2133 5538 l2 -113 93 -3 c87 -3 92 -2 92 18 0 18 -6 20 -60 20 l-60
0 0 30 c0 30 1 30 55 30 48 0 55 2 55 20 0 18 -7 20 -55 20 -52 0 -55 1 -55
25 0 24 3 25 60 25 53 0 60 2 60 20 0 19 -7 20 -94 20 l-94 0 1 -112z"/>
<path d="M2480 5535 l0 -115 30 0 c29 0 30 1 30 50 l0 50 45 0 c38 0 45 3 45
20 0 17 -7 20 -45 20 -41 0 -45 2 -45 25 0 23 3 25 50 25 43 0 50 3 50 20 0
18 -7 20 -80 20 l-80 0 0 -115z"/>
<path d="M2733 5635 c-40 -17 -53 -42 -53 -102 0 -60 19 -89 69 -104 81 -24
148 14 158 89 13 101 -75 160 -174 117z"/>
<path d="M2960 5536 l0 -116 30 0 c29 0 30 1 30 50 0 66 20 66 57 0 25 -44 32
-50 61 -50 17 0 32 2 32 5 0 12 -40 84 -50 90 -7 4 -1 16 15 30 28 27 32 52
11 81 -12 16 -29 20 -100 23 l-86 3 0 -116z"/>
<path d="M3300 5644 c0 -3 18 -32 40 -64 34 -50 40 -67 40 -109 0 -50 1 -51
30 -51 29 0 30 2 30 43 0 34 9 58 38 103 21 32 41 65 46 72 5 9 -2 12 -27 12
-28 0 -37 -6 -53 -35 -10 -19 -24 -35 -30 -35 -6 0 -19 16 -30 35 -15 29 -24
35 -51 35 -18 0 -33 -2 -33 -6z"/>
<path d="M3588 5630 c-46 -35 -44 -155 3 -192 27 -23 81 -23 109 0 44 36 44
158 -1 195 -28 23 -80 22 -111 -3z"/>
<path d="M3772 5565 c4 -53 12 -94 22 -110 30 -46 138 -46 176 2 16 21 20 40
20 109 l0 84 -30 0 -30 0 0 -79 c0 -83 -12 -111 -49 -111 -33 0 -41 22 -41
107 l0 83 -36 0 -37 0 5 -85z"/>
<path d="M4050 5535 l0 -115 30 0 c29 0 30 1 30 50 0 66 20 66 57 0 25 -44 32
-50 61 -50 17 0 32 2 32 5 0 12 -40 84 -50 90 -7 4 -1 16 15 30 30 29 32 58 5
85 -17 17 -33 20 -100 20 l-80 0 0 -115z"/>
<path d="M4397 5643 c-4 -3 -7 -55 -7 -115 l0 -108 35 0 35 0 0 51 0 50 43 -3
42 -3 3 -47 c3 -46 5 -48 33 -48 l29 0 0 115 0 115 -29 0 c-27 0 -30 -3 -33
-37 -3 -37 -4 -38 -45 -41 l-43 -3 0 40 c0 38 -2 41 -28 41 -16 0 -32 -3 -35
-7z"/>
<path d="M4660 5535 l0 -115 95 0 c88 0 95 1 95 20 0 18 -7 20 -60 20 l-60 0
0 30 c0 30 1 30 55 30 48 0 55 2 55 20 0 18 -7 20 -55 20 -52 0 -55 1 -55 25
0 24 3 25 60 25 53 0 60 2 60 20 0 19 -7 20 -95 20 l-95 0 0 -115z"/>
<path d="M4924 5535 l-41 -115 32 0 c24 0 34 5 38 20 4 16 14 20 46 20 30 0
44 -5 53 -20 12 -19 68 -29 68 -12 0 4 -17 54 -38 112 l-38 105 -40 3 -39 3
-41 -116z"/>
<path d="M5150 5535 l0 -115 90 0 c89 0 90 0 90 25 0 24 -3 25 -55 25 l-55 0
0 90 0 90 -35 0 -35 0 0 -115z"/>
<path d="M5330 5630 c0 -16 7 -20 35 -20 l35 0 0 -95 0 -95 30 0 29 0 3 93 3
92 38 3 c29 3 37 7 37 23 0 18 -8 19 -105 19 -98 0 -105 -1 -105 -20z"/>
<path d="M5582 5538 l3 -113 33 -3 32 -3 0 51 0 51 43 -3 42 -3 3 -47 c3 -46
5 -48 33 -48 l29 0 0 115 0 115 -29 0 c-27 0 -30 -3 -33 -37 -3 -37 -4 -38
-45 -41 l-43 -3 0 40 c0 40 -1 41 -35 41 l-36 0 3 -112z"/>
<path d="M2330 4490 c-17 -17 -20 -33 -20 -108 0 -97 8 -114 61 -127 l27 -7
-5 -86 c-3 -48 -7 -89 -9 -91 -2 -3 -14 5 -27 17 -26 25 -47 28 -65 10 -23
-23 -11 -54 48 -115 l59 -63 130 0 131 0 0 34 c0 18 3 60 6 94 l7 61 -29 6
c-16 4 -41 13 -55 20 -14 8 -35 12 -46 9 -11 -3 -24 -1 -27 5 -4 6 -15 11 -26
11 -11 0 -20 10 -24 24 -3 13 -9 31 -12 40 -4 12 3 20 28 30 55 23 63 40 63
131 0 67 -4 87 -19 104 -11 12 -25 21 -33 21 -8 0 -3 -10 13 -23 22 -19 28
-34 32 -79 9 -113 -28 -155 -128 -146 -77 8 -90 25 -90 123 0 84 8 102 50 118
12 4 11 6 -2 6 -10 1 -27 -8 -38 -19z m115 -272 c4 -18 9 -60 12 -93 5 -64 20
-86 54 -78 10 3 26 0 34 -7 8 -7 21 -10 29 -7 8 3 20 -1 26 -9 7 -8 21 -14 31
-14 15 0 19 -8 19 -40 l0 -40 -124 0 -124 0 -56 63 c-58 64 -68 90 -39 101 11
5 28 -5 52 -27 20 -19 52 -40 71 -46 19 -6 43 -22 52 -34 10 -12 18 -17 18
-10 0 19 -39 50 -71 57 -29 5 -29 6 -29 73 0 89 10 143 25 143 7 0 16 -15 20
-32z"/>
<path d="M3264 3060 c-72 -15 -235 -103 -281 -153 -57 -62 -94 -123 -97 -160
-1 -18 -12 -51 -24 -74 -29 -56 -28 -75 3 -38 l26 30 -21 -40 c-12 -22 -32
-58 -45 -80 -14 -22 -23 -46 -20 -53 6 -16 -28 -98 -111 -269 -68 -140 -77
-168 -45 -139 19 18 20 17 11 -16 -21 -80 -28 -161 -25 -265 3 -85 1 -119 -10
-140 -8 -15 -15 -37 -15 -48 -1 -29 -45 -175 -65 -210 -51 -94 -75 -127 -123
-169 -55 -48 -68 -54 -74 -34 -6 17 -115 -48 -121 -72 -3 -11 -1 -18 4 -14 5
3 9 -1 9 -10 0 -8 -6 -17 -12 -19 -10 -4 -10 -8 0 -15 8 -5 13 -12 12 -16 -1
-4 1 -12 3 -19 5 -11 8 9 11 68 1 13 9 21 25 23 17 3 21 0 15 -10 -5 -7 -9
-26 -10 -41 -2 -33 18 -31 26 3 3 13 11 25 18 28 9 3 11 -6 6 -35 -4 -27 1
-54 16 -93 18 -45 23 -82 28 -207 4 -140 14 -188 26 -130 30 140 33 203 15
289 -9 39 -9 53 0 56 17 6 13 52 -9 101 -19 41 -19 61 0 61 5 0 12 -9 15 -20
9 -28 21 -25 34 10 16 46 22 36 20 -32 -1 -35 5 -108 14 -163 9 -55 17 -120
17 -144 0 -60 19 -119 41 -126 10 -3 21 -15 24 -26 4 -10 13 -19 21 -19 11 0
13 11 9 53 -8 92 -16 397 -10 397 3 0 15 -21 27 -47 28 -64 96 -181 118 -203
10 -10 23 -26 29 -36 9 -17 10 -16 11 7 0 15 -7 32 -15 39 -8 7 -15 18 -15 25
0 7 -11 33 -25 57 -19 35 -25 58 -24 102 1 31 6 59 11 62 5 4 35 6 66 5 64 0
78 5 83 34 3 11 11 21 20 23 11 2 28 -24 59 -92 23 -53 58 -119 78 -148 69
-105 122 -197 122 -212 0 -9 5 -16 10 -16 30 0 -15 102 -118 269 -51 83 -72
134 -72 179 0 25 15 30 24 7 9 -26 29 -17 22 9 -3 14 -1 28 5 31 6 4 8 13 5
20 -3 8 0 15 6 17 11 4 -4 39 -29 66 -19 20 -16 32 5 24 29 -11 85 -80 76 -93
-5 -8 -2 -10 8 -7 32 13 104 -144 159 -351 54 -200 69 -301 69 -456 0 -128 -9
-250 -25 -343 -8 -46 14 -20 25 31 29 137 40 236 44 394 l4 173 35 42 c19 24
47 63 63 88 16 25 41 59 55 75 77 88 192 215 195 215 5 0 -17 -49 -32 -75 -7
-11 -26 -59 -43 -107 -26 -78 -28 -89 -14 -96 12 -7 14 -18 9 -43 -3 -19 -8
-47 -11 -64 -4 -28 -4 -29 10 -11 8 11 15 24 15 29 0 6 12 25 26 44 14 18 31
60 37 93 7 34 22 69 35 83 12 13 22 27 22 31 0 20 42 65 55 59 9 -3 22 0 30 7
19 15 45 -3 45 -31 0 -24 19 -34 26 -15 3 9 13 16 21 16 8 0 21 7 30 15 8 9
28 19 44 22 16 3 38 17 49 32 10 14 44 53 75 86 31 33 67 81 80 106 l24 46
-54 50 c-60 57 -95 116 -95 165 -2 120 1 141 24 189 14 27 23 56 20 64 -7 17
5 109 13 102 14 -15 23 -90 12 -103 -17 -20 -6 -26 24 -15 46 18 46 65 2 196
-39 114 -61 166 -112 273 -38 78 -52 119 -48 135 5 18 4 19 -5 7 -10 -12 -11
-11 -6 9 3 13 -2 37 -10 53 -8 16 -24 59 -35 96 -71 230 -238 467 -375 532
-45 21 -53 22 -109 11 -44 -9 -68 -9 -88 -2 -32 12 -73 13 -133 1z m156 -605
c0 -11 8 -13 30 -8 27 5 31 2 41 -26 6 -17 16 -31 21 -31 6 0 5 -6 -2 -15 -7
-8 -9 -15 -4 -15 5 0 17 -11 26 -24 17 -23 16 -24 -28 -55 -24 -18 -44 -40
-44 -48 0 -9 -10 -27 -22 -40 -17 -18 -22 -36 -23 -90 -2 -89 8 -132 45 -186
35 -52 37 -67 11 -67 -10 0 -29 -16 -43 -38 l-25 -37 23 -18 c32 -24 31 -47
-3 -49 -16 -1 -41 -2 -58 -3 -96 -7 -164 -7 -174 -1 -11 7 -39 -39 -30 -49 3
-2 28 4 57 15 47 18 54 18 93 5 23 -8 57 -15 75 -15 19 0 34 -4 34 -8 0 -16
-25 -32 -50 -32 -31 0 -56 -33 -37 -48 7 -6 37 -13 67 -17 30 -3 59 -10 63
-14 22 -22 -38 -91 -79 -91 -9 0 -18 -9 -21 -20 -6 -23 -33 -27 -33 -5 0 8 7
15 15 15 8 0 15 5 15 10 0 13 -13 13 -28 -2 -6 -6 -27 -11 -47 -10 -32 1 -34
-1 -25 -17 5 -10 26 -22 46 -25 20 -4 33 -10 30 -13 -8 -8 54 -73 70 -73 22 0
68 -29 76 -47 3 -10 7 -30 7 -44 1 -32 32 -62 55 -53 14 6 16 2 10 -22 -5 -24
-4 -27 7 -17 16 16 29 17 29 3 0 -12 -74 -115 -90 -125 -6 -3 -16 -21 -24 -39
-8 -18 -28 -47 -44 -64 -17 -18 -36 -49 -42 -71 -5 -21 -17 -44 -25 -51 -16
-13 -16 -13 -20 28 -5 56 -104 283 -169 388 -36 58 -66 109 -66 113 0 5 -10
21 -22 36 -16 21 -19 31 -11 44 6 10 8 47 5 90 -4 63 -11 85 -48 151 -62 109
-106 248 -108 334 -1 69 -1 69 33 88 32 18 37 18 70 4 111 -47 194 -32 231 41
8 15 19 31 24 35 10 7 -18 55 -43 75 -14 11 -14 12 1 13 29 0 29 17 -1 49 -16
17 -31 37 -34 44 -5 15 29 46 59 53 12 3 24 15 27 26 4 13 10 17 18 12 9 -5
10 -2 6 9 -9 23 10 31 22 10 9 -16 11 -14 16 12 5 24 12 30 36 32 19 2 29 -2
29 -12z m290 -445 c9 13 12 12 25 -5 9 -11 13 -25 10 -33 -2 -7 1 -15 9 -18
12 -4 13 -17 8 -76 -1 -11 -7 -15 -17 -12 -8 4 -15 2 -15 -4 0 -6 5 -12 12
-14 22 -8 -23 -99 -59 -120 -18 -11 -31 -24 -28 -28 3 -4 -10 -13 -28 -19 -29
-10 -30 -9 -13 4 17 13 18 18 6 42 -7 16 -12 34 -11 41 1 6 -7 12 -19 12 -11
0 -20 5 -20 11 0 5 -5 7 -12 3 -6 -4 -8 -3 -5 3 3 5 -3 27 -14 47 -11 20 -19
42 -18 49 1 7 -1 19 -5 29 -4 9 -6 29 -4 45 3 26 7 29 67 37 45 7 69 6 82 -3
11 -6 19 -8 18 -4 -3 20 2 27 11 13 9 -13 11 -13 20 0z"/>
<path d="M494 2571 c-90 -55 -116 -159 -65 -259 46 -89 223 -214 283 -199 42
11 174 104 208 146 61 77 75 164 39 238 -38 79 -113 110 -193 79 -25 -9 -50
-23 -56 -31 -10 -12 -20 -10 -64 15 -61 35 -108 38 -152 11z m114 -6 c20 -9
47 -26 59 -37 l23 -21 23 21 c35 33 96 55 134 47 71 -13 132 -111 117 -190 -5
-30 -10 -35 -35 -35 -20 0 -39 11 -63 37 l-34 37 -32 -52 c-17 -29 -35 -50
-40 -47 -4 3 -16 29 -25 58 -33 104 -39 102 -80 -25 -15 -48 -31 -86 -35 -83
-3 2 -19 34 -34 70 -16 36 -34 65 -40 65 -7 0 -25 -13 -39 -30 -28 -31 -70
-40 -83 -18 -4 6 -7 30 -6 54 0 60 36 119 86 144 49 24 56 24 104 5z m122
-211 c13 -37 27 -63 33 -61 7 2 25 27 41 57 l29 53 28 -31 c16 -17 40 -34 54
-38 31 -8 31 -12 -2 -57 -33 -44 -114 -106 -177 -137 l-45 -21 -63 33 c-59 31
-188 145 -188 166 0 5 12 13 28 17 15 3 36 18 48 32 11 15 25 23 31 20 5 -3
22 -38 38 -77 16 -39 33 -69 39 -67 5 2 23 42 39 90 16 48 32 87 37 87 5 0 18
-29 30 -66z"/>
<path d="M4264 1292 c-6 -4 -19 -22 -29 -41 -9 -19 -38 -66 -63 -105 -55 -87
-201 -334 -254 -433 l-39 -73 49 0 49 0 53 83 c96 148 210 399 210 461 0 8 10
36 21 63 18 40 22 45 28 29 6 -15 10 -16 16 -7 4 8 2 17 -6 22 -17 11 -21 11
-35 1z"/>
<path d="M4504 1199 c-23 -28 -48 -86 -64 -149 -43 -165 -71 -262 -99 -348
-24 -72 -28 -98 -21 -118 11 -28 5 -63 -17 -108 -13 -26 -13 -30 6 -50 11 -11
24 -33 30 -48 9 -24 8 -28 -8 -28 -27 0 -40 -21 -47 -72 -5 -37 -2 -52 19 -84
39 -61 42 -89 11 -102 -14 -7 -34 -12 -46 -12 -16 0 -19 -4 -14 -22 3 -13 6
-26 6 -30 0 -4 86 -7 190 -7 157 1 190 3 190 15 0 8 -5 14 -11 14 -7 0 -9 10
-5 25 5 20 3 25 -13 25 -16 0 -20 11 -27 83 -5 45 -7 97 -6 116 3 30 1 33 -12
22 -29 -24 -18 9 15 46 16 19 27 38 24 42 -4 3 -20 -9 -36 -27 -16 -18 -29
-31 -29 -30 0 2 9 32 20 67 10 35 17 68 14 73 -3 4 0 45 7 90 11 77 33 151 88
286 l21 52 -25 0 c-47 0 -124 -149 -159 -305 -10 -44 -23 -96 -28 -115 -5 -19
-12 -89 -15 -154 l-6 -119 -27 54 c-22 43 -29 74 -34 154 -6 94 -4 137 24 404
15 137 46 256 85 315 19 29 18 69 -1 45z"/>
<path d="M2240 928 c0 -7 5 -29 10 -48 15 -53 28 -160 19 -160 -4 0 -10 12
-13 26 -4 15 -10 23 -14 19 -11 -11 -10 -85 2 -78 5 4 7 -1 3 -11 -4 -10 -7
-20 -7 -22 0 -13 -25 0 -42 22 -27 34 -43 17 -22 -24 8 -18 19 -32 23 -32 7 0
29 -50 49 -110 15 -47 14 -144 -2 -166 -11 -15 -14 -5 -20 67 -4 46 -12 90
-18 96 -6 7 -7 20 -4 29 4 11 -1 18 -14 21 -11 3 -20 9 -20 14 0 5 -8 9 -19 9
-13 0 -22 12 -31 43 -10 37 -9 50 5 83 13 31 14 43 4 61 -15 29 -20 29 -47 0
-27 -29 -41 -91 -43 -204 -1 -71 -7 -106 -27 -155 -32 -82 -37 -86 -60 -49
-10 17 -36 50 -58 73 -59 63 -114 150 -114 180 0 15 -5 30 -11 33 -6 4 -7 19
-4 36 7 30 -8 41 -19 13 -16 -40 8 -144 57 -249 28 -61 32 -80 31 -146 -1 -51
-9 -96 -23 -134 l-22 -57 26 -44 26 -44 216 0 c209 0 218 1 240 22 l23 21 0
-21 c0 -17 6 -22 25 -22 24 0 24 0 20 85 -3 67 -9 93 -26 116 -19 27 -20 38
-14 107 9 94 9 85 -5 208 -6 54 -15 135 -20 179 -11 101 -39 225 -51 225 -5 0
-9 -6 -9 -12z"/>
<path d="M5050 587 c-21 -10 -28 -26 -42 -92 -21 -97 -15 -147 16 -143 13 2
24 14 29 33 5 17 16 46 25 65 17 34 18 35 79 35 70 0 78 4 69 39 -4 17 -17 28
-43 37 -21 6 -42 15 -48 19 -21 15 -61 19 -85 7z"/>
<path d="M3570 250 c0 -19 47 -59 77 -65 15 -4 43 -13 62 -21 31 -14 33 -17
26 -52 -3 -20 -11 -41 -16 -47 -5 -5 -9 -17 -9 -27 0 -17 14 -18 210 -18 l211
0 -3 34 c-1 26 -6 33 -17 28 -9 -3 -12 -1 -8 3 12 13 -90 65 -188 95 -88 28
-300 80 -324 80 -12 0 -21 -5 -21 -10z"/>
</g>
</svg>
