<?xml version="1.0" standalone="no"?>
<!DOCTYPE svg PUBLIC "-//W3C//DTD SVG 20010904//EN"
 "http://www.w3.org/TR/2001/REC-SVG-20010904/DTD/svg10.dtd">
<svg version="1.0" xmlns="http://www.w3.org/2000/svg"
 width="685.000000pt" height="769.000000pt" viewBox="0 0 685.000000 769.000000"
 preserveAspectRatio="xMidYMid meet">

<g transform="translate(0.000000,769.000000) scale(0.100000,-0.100000)"
fill="#000000" stroke="none">
<path d="M2980 6360 c0 -48 1 -50 28 -50 35 0 52 16 52 50 0 34 -17 50 -52 50
-27 0 -28 -2 -28 -50z m60 20 c14 -26 -4 -63 -28 -58 -18 3 -28 39 -18 64 8
20 34 17 46 -6z"/>
<path d="M3391 6358 c1 -38 3 -46 8 -28 4 14 17 27 31 31 25 7 24 7 -3 8 -34
1 -32 22 4 32 21 6 21 7 -8 8 l-33 1 1 -52z"/>
<path d="M3823 6360 c0 -31 2 -41 4 -22 6 42 33 44 33 2 0 -16 5 -30 11 -30 6
0 9 14 7 33 -2 24 -8 33 -25 35 -12 2 -24 11 -26 20 -3 9 -4 -8 -4 -38z"/>
<path d="M3608 6390 c-9 -28 4 -80 21 -80 13 0 13 2 2 9 -8 5 -12 19 -9 34 5
28 -6 59 -14 37z"/>
<path d="M3080 6345 c0 -19 5 -35 10 -35 6 0 10 13 10 29 0 16 6 32 13 34 6 3
2 6 -10 6 -20 1 -23 -4 -23 -34z"/>
<path d="M3143 6345 c0 -22 2 -30 4 -17 2 12 2 30 0 40 -3 9 -5 -1 -4 -23z"/>
<path d="M3181 6370 c-1 -22 25 -64 32 -53 11 18 27 63 22 63 -3 0 -10 -12
-16 -27 l-11 -28 -13 30 c-7 17 -14 23 -14 15z"/>
<path d="M3261 6343 c1 -37 2 -37 8 -8 9 43 39 45 44 3 l4 -33 1 38 c2 35 0
37 -28 37 -28 0 -30 -2 -29 -37z"/>
<path d="M3483 6345 c0 -22 2 -30 4 -17 2 12 2 30 0 40 -3 9 -5 -1 -4 -23z"/>
<path d="M3521 6340 l1 -35 7 30 c9 43 39 45 44 3 l4 -33 1 38 c2 36 1 37 -28
35 -28 -2 -30 -5 -29 -38z"/>
<path d="M3654 6366 c-15 -38 22 -74 49 -47 7 7 4 8 -10 5 -12 -3 -24 -1 -27
5 -5 7 3 11 19 11 20 0 26 4 23 18 -4 22 -46 29 -54 8z m46 -6 c0 -5 -9 -10
-21 -10 -11 0 -17 5 -14 10 3 6 13 10 21 10 8 0 14 -4 14 -10z"/>
<path d="M3735 6360 c-11 -34 32 -68 50 -40 4 6 -1 7 -10 3 -19 -7 -36 13 -28
34 3 8 14 13 24 10 11 -3 19 -1 19 4 0 19 -49 9 -55 -11z"/>
<path d="M1677 6044 c-4 -4 -7 -45 -7 -91 0 -76 -2 -83 -20 -83 -11 0 -20 7
-20 15 0 17 -55 21 -65 5 -10 -16 23 -60 53 -71 36 -14 98 5 114 34 6 12 12
60 12 107 l1 85 -30 3 c-17 2 -34 0 -38 -4z"/>
<path d="M1797 6044 c-4 -4 -7 -44 -7 -88 0 -97 13 -121 71 -136 54 -15 93 -5
124 32 24 28 26 37 23 112 l-3 81 -30 0 c-30 0 -30 0 -33 -65 -4 -103 -7 -112
-45 -108 l-32 3 -5 85 c-5 82 -6 85 -30 88 -14 2 -29 0 -33 -4z"/>
<path d="M2105 6043 c-57 -15 -75 -80 -30 -109 14 -9 40 -20 58 -23 44 -9 50
-41 8 -41 -17 0 -31 4 -31 9 0 13 -30 22 -51 16 -25 -8 -24 -27 4 -52 64 -59
182 -25 175 50 -2 25 -11 36 -38 49 -19 10 -47 20 -62 23 -16 3 -28 10 -28 16
0 11 18 9 82 -7 21 -5 29 -2 34 11 14 36 -64 73 -121 58z"/>
<path d="M2254 6035 c-11 -26 4 -45 35 -45 l30 0 3 -87 3 -88 35 0 35 0 3 87
3 87 32 3 c27 2 32 7 32 28 0 25 -1 25 -103 28 -85 2 -103 0 -108 -13z"/>
<path d="M2652 6039 c-65 -19 -92 -111 -52 -176 37 -62 148 -65 187 -6 16 24
16 26 -2 39 -26 19 -38 18 -53 -6 -14 -22 -51 -27 -70 -8 -16 16 -16 80 0 96
17 17 48 15 70 -5 15 -13 23 -14 43 -5 22 10 24 14 13 32 -14 21 -67 51 -90
49 -7 0 -28 -5 -46 -10z"/>
<path d="M2835 6037 c-3 -7 -4 -60 -3 -118 l3 -104 85 0 85 0 0 30 c0 29 -2
30 -52 33 l-52 3 -3 82 c-3 81 -3 82 -31 85 -16 2 -29 -2 -32 -11z"/>
<path d="M3045 6037 c-3 -7 -4 -60 -3 -118 l3 -104 30 0 30 0 0 115 0 115 -28
3 c-16 2 -29 -2 -32 -11z"/>
<path d="M3222 6039 c-65 -19 -92 -111 -52 -176 37 -62 148 -65 187 -6 16 24
16 26 -2 39 -26 19 -38 18 -53 -6 -14 -22 -51 -27 -70 -8 -16 16 -16 80 0 96
17 17 48 15 70 -5 15 -13 23 -14 43 -5 22 10 24 14 13 32 -14 21 -67 51 -90
49 -7 0 -28 -5 -46 -10z"/>
<path d="M3405 6037 c-3 -7 -4 -60 -3 -118 l3 -104 30 0 c26 0 30 4 33 32 2
17 10 37 19 44 17 15 22 10 55 -50 14 -26 23 -31 53 -31 19 0 35 5 35 11 0 6
-16 37 -35 69 -19 32 -35 62 -35 67 0 5 16 24 35 43 39 38 37 50 -9 50 -27 0
-41 -9 -70 -40 -20 -22 -38 -40 -40 -40 -3 0 -6 17 -8 38 -3 32 -7 37 -31 40
-16 2 -29 -2 -32 -11z"/>
<path d="M3824 6029 c-10 -11 -31 -27 -46 -35 -17 -9 -28 -23 -28 -35 0 -21 9
-22 52 -4 15 6 17 -2 20 -67 3 -70 4 -73 28 -73 l25 0 0 115 c0 96 -3 115 -16
118 -8 1 -24 -7 -35 -19z"/>
<path d="M4064 6037 c-2 -7 -3 -60 -2 -118 3 -104 3 -104 28 -104 24 0 25 3
30 70 l5 70 13 -56 c7 -31 19 -64 26 -74 19 -26 52 -11 60 27 3 18 12 50 19
72 l12 41 5 -75 c5 -72 6 -75 30 -75 l25 0 0 115 0 115 -45 0 c-45 0 -45 0
-58 -45 -26 -88 -28 -89 -42 -30 -7 30 -17 61 -23 68 -13 16 -76 16 -83 -1z"/>
<path d="M4430 6043 c-61 -20 -90 -57 -90 -115 0 -108 134 -154 210 -73 31 33
33 113 4 146 -32 36 -87 55 -124 42z m71 -80 c16 -43 0 -87 -34 -91 -39 -5
-57 14 -57 57 0 44 14 61 52 61 22 0 31 -6 39 -27z"/>
<path d="M4614 6037 c-2 -7 -3 -60 -2 -118 l3 -104 30 0 c28 0 30 3 33 43 2
27 8 42 17 42 7 0 24 -19 37 -42 23 -43 51 -57 84 -44 13 5 12 10 -2 38 -9 18
-23 40 -31 49 -12 14 -12 17 2 23 22 8 36 51 25 80 -5 13 -22 28 -41 35 -45
16 -148 14 -155 -2z m126 -62 c0 -10 -10 -15 -30 -15 -20 0 -30 5 -30 15 0 10
10 15 30 15 20 0 30 -5 30 -15z"/>
<path d="M4854 6037 c-2 -7 -3 -60 -2 -118 l3 -104 90 0 c89 0 90 0 90 25 0
23 -4 25 -57 28 -49 3 -58 6 -58 22 0 16 9 19 53 22 48 3 52 5 52 28 0 23 -4
25 -52 28 -71 4 -67 20 5 24 53 3 57 5 57 28 0 25 -2 25 -88 28 -66 2 -89 0
-93 -11z"/>
<path d="M5074 5866 c-12 -31 0 -51 31 -51 27 0 30 3 30 30 0 25 -4 30 -28 33
-17 2 -29 -2 -33 -12z"/>
<path d="M5164 5866 c-12 -31 0 -51 31 -51 27 0 30 3 30 30 0 25 -4 30 -28 33
-17 2 -29 -2 -33 -12z"/>
<path d="M5264 5866 c-12 -31 0 -51 31 -51 27 0 30 3 30 30 0 25 -4 30 -28 33
-17 2 -29 -2 -33 -12z"/>
<path d="M1161 5637 c-61 -31 -50 -88 21 -108 52 -15 73 -32 65 -53 -9 -22
-44 -20 -64 4 -31 35 -71 21 -58 -20 13 -41 132 -51 170 -14 8 9 15 31 15 50
0 36 -14 47 -94 70 -16 5 -31 15 -34 21 -6 19 27 28 49 15 30 -19 71 -15 67 5
-7 37 -89 55 -137 30z"/>
<path d="M1350 5535 l0 -115 95 0 c88 0 95 1 95 20 0 18 -7 20 -60 20 l-60 0
0 30 c0 30 1 30 55 30 48 0 55 2 55 20 0 18 -7 20 -55 20 -52 0 -55 1 -55 25
0 24 3 25 60 25 53 0 60 2 60 20 0 19 -7 20 -95 20 l-95 0 0 -115z"/>
<path d="M1580 5535 l0 -115 90 0 c89 0 90 0 90 25 0 24 -3 25 -55 25 l-55 0
0 90 0 90 -35 0 -35 0 0 -115z"/>
<path d="M1810 5535 l0 -115 30 0 c29 0 30 1 30 50 l0 50 45 0 c38 0 45 3 45
20 0 17 -7 20 -45 20 -41 0 -45 2 -45 25 0 23 3 25 50 25 43 0 50 3 50 20 0
18 -7 20 -80 20 l-80 0 0 -115z"/>
<path d="M2020 5535 l0 -115 30 0 30 0 0 115 0 115 -30 0 -30 0 0 -115z"/>
<path d="M2130 5535 l0 -115 95 0 c88 0 95 1 95 20 0 18 -7 20 -60 20 l-60 0
0 30 c0 30 1 30 55 30 48 0 55 2 55 20 0 18 -7 20 -55 20 -52 0 -55 1 -55 25
0 24 3 25 60 25 53 0 60 2 60 20 0 19 -7 20 -95 20 l-95 0 0 -115z"/>
<path d="M2480 5535 l0 -115 30 0 c29 0 30 1 30 50 l0 50 45 0 c38 0 45 3 45
20 0 17 -7 20 -45 20 -41 0 -45 2 -45 25 0 23 3 25 50 25 43 0 50 3 50 20 0
18 -7 20 -80 20 l-80 0 0 -115z"/>
<path d="M2733 5636 c-40 -18 -53 -43 -53 -103 0 -60 19 -89 69 -104 51 -15
102 -5 132 27 19 21 24 36 24 80 0 45 -4 58 -26 80 -32 32 -99 41 -146 20z
m103 -51 c18 -28 14 -85 -7 -111 -32 -39 -89 -1 -89 59 0 72 61 105 96 52z"/>
<path d="M2960 5535 l0 -115 30 0 c29 0 30 1 30 50 0 66 20 66 57 0 25 -44 32
-50 61 -50 17 0 32 2 32 5 0 15 -41 84 -52 88 -9 3 -4 13 15 30 32 31 35 59 7
87 -17 17 -33 20 -100 20 l-80 0 0 -115z m128 63 c17 -17 -4 -38 -39 -38 -24
0 -29 4 -29 25 0 21 5 25 28 25 15 0 33 -5 40 -12z"/>
<path d="M3300 5644 c0 -3 18 -32 40 -64 34 -50 40 -67 40 -109 0 -50 1 -51
30 -51 29 0 30 2 30 43 0 34 9 58 38 103 21 32 41 65 46 72 5 9 -2 12 -27 12
-28 0 -37 -6 -53 -35 -10 -19 -24 -35 -30 -35 -6 0 -19 16 -30 35 -15 29 -24
35 -51 35 -18 0 -33 -2 -33 -6z"/>
<path d="M3588 5630 c-45 -35 -43 -155 3 -192 11 -10 36 -18 54 -18 18 0 43 8
54 18 46 36 46 158 0 195 -28 23 -80 22 -111 -3z m81 -24 c18 -22 10 -136 -11
-149 -30 -20 -48 8 -48 77 0 77 27 110 59 72z"/>
<path d="M3772 5565 c4 -53 12 -94 22 -110 30 -46 138 -46 176 2 16 21 20 40
20 109 l0 84 -30 0 -30 0 0 -79 c0 -83 -12 -111 -49 -111 -33 0 -41 22 -41
107 l0 83 -36 0 -37 0 5 -85z"/>
<path d="M4050 5535 l0 -115 30 0 c29 0 30 1 30 50 0 66 20 66 57 0 25 -44 32
-50 61 -50 17 0 32 2 32 5 0 15 -41 84 -52 88 -9 3 -4 13 15 30 32 31 35 59 7
87 -17 17 -33 20 -100 20 l-80 0 0 -115z m128 63 c17 -17 -4 -38 -39 -38 -24
0 -29 4 -29 25 0 21 5 25 28 25 15 0 33 -5 40 -12z"/>
<path d="M4390 5535 l0 -115 35 0 35 0 0 51 0 50 43 -3 42 -3 3 -47 c3 -46 5
-48 33 -48 l29 0 0 115 0 115 -29 0 c-27 0 -30 -3 -33 -37 -3 -37 -4 -38 -45
-41 l-43 -3 0 40 c0 40 -1 41 -35 41 l-35 0 0 -115z"/>
<path d="M4660 5535 l0 -115 95 0 c88 0 95 1 95 20 0 18 -7 20 -60 20 l-60 0
0 30 c0 30 1 30 55 30 48 0 55 2 55 20 0 18 -7 20 -55 20 -52 0 -55 1 -55 25
0 24 3 25 60 25 53 0 60 2 60 20 0 19 -7 20 -95 20 l-95 0 0 -115z"/>
<path d="M4924 5535 l-41 -115 32 0 c24 0 34 5 38 20 4 16 14 20 50 20 37 0
47 -4 52 -20 4 -14 15 -20 36 -20 16 0 29 3 29 8 0 4 -18 54 -39 112 l-38 105
-39 3 -39 3 -41 -116z m96 29 c16 -41 12 -54 -15 -54 -26 0 -31 13 -19 58 8
29 22 28 34 -4z"/>
<path d="M5150 5535 l0 -115 90 0 c89 0 90 0 90 25 0 24 -3 25 -55 25 l-55 0
0 90 0 90 -35 0 -35 0 0 -115z"/>
<path d="M5330 5630 c0 -16 7 -20 35 -20 l35 0 0 -95 0 -95 30 0 29 0 3 93 3
92 38 3 c29 3 37 7 37 23 0 18 -8 19 -105 19 -98 0 -105 -1 -105 -20z"/>
<path d="M5580 5535 l0 -115 35 0 35 0 0 51 0 50 43 -3 42 -3 3 -47 c3 -46 5
-48 33 -48 l29 0 0 115 0 115 -29 0 c-27 0 -30 -3 -33 -37 -3 -37 -4 -38 -45
-41 l-43 -3 0 40 c0 40 -1 41 -35 41 l-35 0 0 -115z"/>
<path d="M1448 5164 c-4 -4 2 -20 14 -37 12 -17 24 -46 28 -66 7 -46 24 -47
28 -1 2 19 12 46 23 61 25 35 25 62 -1 31 -10 -12 -21 -28 -23 -35 -4 -8 -16
0 -34 21 -16 18 -32 30 -35 26z"/>
<path d="M1914 5156 c-3 -7 -4 -39 -2 -70 3 -58 21 -81 26 -34 2 20 10 28 28
30 32 4 32 22 -1 26 -17 2 -25 9 -25 23 0 15 7 19 36 19 21 0 33 4 29 10 -9
15 -85 12 -91 -4z"/>
<path d="M2415 5158 c-9 -24 -1 -128 10 -131 13 -3 19 123 6 136 -7 7 -12 5
-16 -5z"/>
<path d="M2653 5157 c-9 -11 -53 -123 -53 -133 0 -13 20 -1 25 16 8 25 75 30
75 6 0 -16 18 -31 26 -23 6 6 -45 135 -56 142 -4 3 -12 -1 -17 -8z m27 -64 c0
-7 -7 -13 -15 -13 -15 0 -21 31 -8 43 8 8 23 -12 23 -30z"/>
<path d="M3376 5159 c-3 -8 -7 -32 -8 -54 l-3 -40 -30 47 c-42 67 -55 63 -55
-17 0 -75 17 -89 22 -18 l3 48 34 -53 c18 -29 39 -51 45 -49 14 5 20 127 7
140 -7 7 -12 6 -15 -4z"/>
<path d="M3814 5156 c-3 -7 -4 -39 -2 -70 3 -58 21 -81 26 -34 2 20 10 28 28
30 32 4 32 22 -1 26 -17 2 -25 9 -25 23 0 15 7 19 35 19 19 0 35 5 35 10 0 16
-90 12 -96 -4z"/>
<path d="M4334 5156 c-3 -7 -4 -40 -2 -72 l3 -59 38 -3 c54 -5 67 10 64 70 -2
35 -9 55 -22 64 -24 18 -74 18 -81 0z m75 -19 c14 -17 4 -27 -26 -27 -16 0
-23 6 -23 20 0 23 31 27 49 7z m0 -56 c21 -13 5 -41 -24 -41 -20 0 -25 5 -25
25 0 26 22 33 49 16z"/>
<path d="M4924 5157 c-8 -23 0 -127 11 -130 6 -1 11 13 13 31 3 29 6 32 38 32
31 0 34 -2 34 -30 0 -16 5 -30 10 -30 6 0 10 28 10 65 0 37 -4 65 -10 65 -5 0
-10 -11 -10 -25 0 -22 -4 -25 -35 -25 -30 0 -35 3 -35 24 0 29 -18 44 -26 23z"/>
<path d="M2740 5096 c0 -36 5 -68 10 -71 6 -4 10 20 10 64 0 41 -4 71 -10 71
-6 0 -10 -28 -10 -64z"/>
<path d="M2790 5089 c0 -44 4 -68 10 -64 6 3 10 35 10 71 0 36 -4 64 -10 64
-6 0 -10 -30 -10 -71z"/>
<path d="M2886 5148 c4 -7 16 -25 26 -40 10 -14 18 -40 18 -58 0 -18 4 -29 10
-25 6 3 10 19 10 34 0 15 11 42 25 61 31 42 22 55 -11 15 l-25 -30 -20 28
c-20 27 -47 39 -33 15z"/>
<path d="M3710 5140 c0 -13 -5 -18 -15 -13 -9 3 -25 -3 -35 -12 -40 -36 -13
-99 39 -93 25 3 26 6 29 71 2 42 -1 67 -8 67 -5 0 -10 -9 -10 -20z m-5 -65 c0
-23 -4 -30 -20 -30 -21 0 -31 25 -21 51 11 28 41 12 41 -21z"/>
<path d="M4171 5095 c-23 -64 -24 -97 -1 -56 15 29 63 28 83 -1 12 -18 16 -19
16 -7 1 28 -48 129 -62 129 -7 0 -24 -29 -36 -65z m49 26 c0 -5 3 -16 6 -25 4
-12 0 -16 -16 -16 -16 0 -20 4 -16 16 3 9 6 20 6 25 0 5 5 9 10 9 6 0 10 -4
10 -9z"/>
<path d="M4583 5142 c-5 -13 -6 -44 -3 -70 4 -36 9 -48 25 -51 17 -3 18 -1 6
13 -9 10 -12 30 -9 54 3 20 2 46 -2 57 -8 19 -8 19 -17 -3z"/>
<path d="M5290 5095 c0 -37 4 -65 10 -65 6 0 10 28 10 65 0 37 -4 65 -10 65
-6 0 -10 -28 -10 -65z"/>
<path d="M5390 5095 c0 -37 4 -65 10 -65 6 0 10 16 10 35 0 23 6 38 16 42 21
8 34 -13 34 -55 0 -20 4 -31 10 -27 15 9 12 68 -4 90 -8 12 -20 16 -35 12 -16
-4 -21 -1 -21 14 0 10 -4 19 -10 19 -6 0 -10 -28 -10 -65z"/>
<path d="M4638 5138 c-8 -21 6 -111 17 -115 8 -2 11 69 6 120 -2 12 -18 8 -23
-5z"/>
<path d="M5338 5138 c-8 -21 6 -111 17 -115 8 -2 11 69 6 120 -2 12 -18 8 -23
-5z"/>
<path d="M1577 5112 c-31 -34 -14 -92 27 -92 48 0 73 61 38 93 -24 22 -45 21
-65 -1z m53 -17 c6 -8 10 -22 8 -32 -5 -25 -51 -25 -56 0 -8 42 23 63 48 32z"/>
<path d="M1808 5123 c-14 -3 -18 -15 -18 -54 0 -31 4 -48 10 -44 6 3 10 22 10
41 0 22 6 37 15 40 8 4 15 10 15 15 0 9 -4 10 -32 2z"/>
<path d="M2047 5119 c-9 -6 -15 -15 -11 -20 4 -6 11 -6 20 2 16 13 52 3 38
-10 -5 -5 -20 -11 -34 -13 -19 -2 -25 -9 -25 -28 0 -23 4 -25 43 -25 l42 -1 0
41 c0 59 -28 80 -73 54z m51 -61 c-5 -16 -48 -24 -48 -10 0 11 17 20 38 21 8
1 12 -5 10 -11z"/>
<path d="M2157 5112 c-20 -22 -22 -63 -5 -80 16 -16 53 -15 67 1 14 18 2 30
-15 16 -21 -17 -44 -3 -44 26 0 29 24 43 44 26 9 -8 16 -8 20 -2 6 10 -23 31
-42 31 -5 0 -16 -8 -25 -18z"/>
<path d="M2255 5114 c-20 -20 -16 -73 6 -87 17 -11 69 -2 69 12 0 5 -14 8 -31
7 -18 0 -34 5 -36 12 -3 8 7 12 31 12 29 0 36 4 36 20 0 18 -26 40 -49 40 -5
0 -17 -7 -26 -16z m50 -14 c4 -6 -5 -10 -20 -10 -15 0 -24 4 -20 10 3 6 12 10
20 10 8 0 17 -4 20 -10z"/>
<path d="M2470 5115 c-15 -18 -1 -40 31 -50 33 -11 22 -27 -13 -19 -29 6 -31
5 -19 -10 17 -20 55 -21 71 -1 15 18 1 40 -31 50 -30 10 -23 28 8 20 23 -5 25
-4 14 9 -17 20 -45 20 -61 1z"/>
<path d="M3010 5110 c-24 -24 -25 -38 -4 -68 17 -24 53 -29 72 -10 17 17 15
64 -4 82 -21 21 -40 20 -64 -4z m55 -35 c0 -23 -5 -31 -22 -33 -19 -3 -23 1
-23 26 0 33 8 44 30 40 9 -2 15 -14 15 -33z"/>
<path d="M3436 5114 c-19 -18 -21 -65 -4 -82 16 -16 53 -15 67 2 10 12 6 14
-20 13 -18 -1 -34 4 -36 11 -3 8 7 12 31 12 29 0 36 4 36 20 0 18 -26 40 -49
40 -5 0 -17 -7 -25 -16z m49 -14 c4 -6 -5 -10 -20 -10 -15 0 -24 4 -20 10 3 6
12 10 20 10 8 0 17 -4 20 -10z"/>
<path d="M3545 5114 c-20 -20 -16 -73 6 -87 17 -11 69 -2 69 12 0 5 -14 8 -31
7 -18 0 -34 5 -36 12 -3 8 7 12 31 12 29 0 36 4 36 20 0 18 -26 40 -49 40 -5
0 -17 -7 -26 -16z m50 -14 c4 -6 -5 -10 -20 -10 -15 0 -24 4 -20 10 3 6 12 10
20 10 8 0 17 -4 20 -10z"/>
<path d="M3946 5114 c-19 -18 -21 -65 -4 -82 19 -19 55 -14 72 10 21 30 20 44
-4 68 -24 24 -43 25 -64 4z m52 -42 c3 -30 1 -33 -20 -30 -23 3 -34 27 -24 54
11 28 41 11 44 -24z"/>
<path d="M4062 5122 c-21 -3 -23 -8 -20 -50 4 -55 22 -63 26 -12 2 19 10 40
18 47 18 13 7 20 -24 15z"/>
<path d="M4476 5108 c-9 -12 -16 -30 -16 -40 0 -40 64 -64 90 -33 10 12 7 14
-21 12 -19 -1 -36 3 -39 8 -3 6 12 11 33 13 41 4 48 19 19 45 -25 23 -48 21
-66 -5z m54 -8 c0 -5 -9 -10 -21 -10 -11 0 -17 5 -14 10 3 6 13 10 21 10 8 0
14 -4 14 -10z"/>
<path d="M4712 5123 c-7 -3 -18 -16 -23 -30 -20 -52 47 -99 82 -57 11 14 9 15
-24 9 -30 -6 -37 -4 -37 9 0 12 9 16 35 16 39 0 46 17 19 44 -16 16 -29 19
-52 9z m43 -23 c4 -6 -5 -10 -20 -10 -15 0 -24 4 -20 10 3 6 12 10 20 10 8 0
17 -4 20 -10z"/>
<path d="M4818 5123 c-14 -3 -18 -15 -18 -49 0 -24 5 -44 10 -44 6 0 10 16 10
36 0 27 5 37 20 41 11 3 17 9 14 14 -5 9 -8 10 -36 2z"/>
<path d="M5076 5108 c-9 -12 -16 -30 -16 -40 0 -40 64 -64 90 -33 10 12 7 14
-21 12 -19 -1 -36 3 -39 8 -3 6 12 11 33 13 41 4 48 19 19 45 -25 23 -48 21
-66 -5z m54 -8 c0 -5 -9 -10 -21 -10 -11 0 -17 5 -14 10 3 6 13 10 21 10 8 0
14 -4 14 -10z"/>
<path d="M5190 5115 c-11 -13 -8 -14 20 -8 25 5 32 3 28 -8 -3 -8 -13 -16 -24
-18 -33 -6 -45 -21 -33 -42 8 -15 18 -19 47 -16 34 4 37 7 40 39 5 56 -47 91
-78 53z m50 -60 c0 -8 -9 -15 -20 -15 -20 0 -26 11 -13 23 12 13 33 7 33 -8z"/>
<path d="M1682 5073 c3 -48 3 -48 41 -50 l37 -1 0 49 c0 27 -4 49 -10 49 -5 0
-10 -18 -10 -40 0 -33 -3 -40 -20 -40 -17 0 -20 7 -20 40 0 22 -5 40 -11 40
-6 0 -9 -19 -7 -47z"/>
<path d="M3110 5081 c0 -45 17 -63 57 -58 26 3 28 7 31 50 2 28 -1 47 -7 47
-6 0 -11 -12 -11 -27 0 -37 -14 -57 -34 -50 -10 4 -16 19 -16 42 0 19 -4 35
-10 35 -5 0 -10 -17 -10 -39z"/>
<path d="M2077 4583 c-4 -3 -7 -47 -7 -97 0 -109 18 -106 22 4 l3 75 68 3 c37
2 67 7 67 12 0 11 -143 14 -153 3z"/>
<path d="M2715 4580 c-3 -5 24 -10 67 -12 l73 -3 6 -85 5 -85 2 98 2 97 -74 0
c-41 0 -77 -4 -81 -10z"/>
<path d="M3687 4583 c-11 -10 -8 -173 3 -173 5 0 10 35 12 78 l3 77 73 3 c43
2 70 7 67 12 -7 11 -148 14 -158 3z"/>
<path d="M4330 4581 c0 -6 30 -11 68 -13 l67 -3 3 -75 c2 -41 7 -79 13 -85 6
-6 9 22 7 85 l-3 95 -77 3 c-47 2 -78 -1 -78 -7z"/>
<path d="M2330 4490 c-17 -17 -20 -33 -20 -103 0 -93 13 -122 59 -132 l29 -6
-5 -77 c-6 -105 -8 -110 -36 -83 -26 24 -47 27 -65 9 -23 -23 -11 -54 46 -115
l58 -63 131 0 130 0 7 90 c4 50 4 95 1 100 -3 6 -18 10 -33 10 -15 0 -36 7
-46 15 -11 8 -29 12 -42 9 -12 -3 -25 -1 -28 5 -4 6 -15 11 -26 11 -11 0 -20
10 -24 24 -3 13 -9 31 -12 40 -4 12 3 20 28 30 55 23 63 40 63 131 0 90 -17
126 -59 124 -18 0 -17 -2 6 -10 64 -24 66 -199 2 -228 -42 -19 -118 -14 -148
10 -24 19 -26 26 -26 103 0 85 8 103 50 119 12 4 11 6 -2 6 -10 1 -27 -8 -38
-19z m110 -264 c0 -14 5 -28 10 -31 6 -3 10 -35 10 -70 0 -35 5 -67 11 -70 9
-6 56 -13 101 -16 9 0 22 -7 29 -15 6 -8 20 -14 30 -14 15 0 19 -8 19 -40 l0
-40 -124 0 -124 0 -56 63 c-31 34 -56 70 -56 80 0 33 30 31 68 -5 20 -20 54
-41 75 -48 20 -6 42 -21 48 -32 6 -11 13 -17 16 -15 13 13 -21 47 -57 57 l-40
11 0 67 c0 91 10 142 26 142 8 0 14 -10 14 -24z m78 -124 c3 -39 1 -42 -22
-42 -23 0 -26 4 -26 38 0 43 7 54 30 50 10 -2 16 -17 18 -46z m72 -12 c0 -36
-3 -40 -24 -40 -16 0 -27 7 -31 20 -10 33 4 60 31 60 21 0 24 -4 24 -40z m65
-25 c0 -46 -26 -60 -45 -25 -18 33 -4 72 23 68 18 -3 22 -9 22 -43z"/>
<path d="M4125 4493 c-21 -6 -35 -21 -35 -38 1 -5 5 -2 11 8 5 9 19 17 29 17
11 0 20 5 20 10 0 6 -1 9 -2 9 -2 -1 -12 -4 -23 -6z"/>
<path d="M2362 4433 l3 -38 63 -3 62 -3 0 41 0 40 -66 0 -65 0 3 -37z m113 -3
c0 -23 -4 -25 -48 -28 -35 -2 -49 1 -53 12 -13 34 4 47 53 44 44 -3 48 -5 48
-28z"/>
<path d="M3947 4457 c3 -4 10 -6 16 -4 7 2 21 -3 31 -12 18 -15 18 -15 6 5 -8
13 -23 21 -36 20 -12 0 -20 -5 -17 -9z"/>
<path d="M4275 4460 c-3 -5 -11 -7 -18 -4 -7 2 -18 -6 -26 -18 -13 -22 -13
-22 5 -7 10 9 24 15 30 12 6 -2 14 3 17 12 7 17 2 20 -8 5z"/>
<path d="M4032 4388 c-7 -7 -27 -11 -45 -10 -41 3 -90 -27 -77 -48 6 -9 10
-10 10 -3 0 37 90 63 90 26 1 -16 2 -15 12 2 6 11 18 26 26 33 9 6 11 12 6 12
-6 0 -16 -6 -22 -12z"/>
<path d="M4157 4345 c-10 -20 -15 -46 -12 -58 5 -16 -3 -31 -30 -57 -30 -29
-35 -31 -36 -14 0 11 -5 5 -10 -15 -6 -18 -8 -35 -6 -37 2 -2 27 23 56 56 42
48 51 63 41 75 -14 17 11 71 37 78 15 4 14 5 -3 6 -14 1 -25 -10 -37 -34z"/>
<path d="M4236 4345 c24 -39 24 -40 24 -28 0 6 -9 21 -21 34 l-20 24 17 -30z"/>
<path d="M2354 4335 c-4 -9 -2 -21 4 -27 16 -16 47 -5 47 17 0 26 -42 34 -51
10z m41 -4 c7 -12 -12 -24 -25 -16 -11 7 -4 25 10 25 5 0 11 -4 15 -9z"/>
<path d="M2447 4337 c-8 -21 8 -39 29 -35 11 2 20 13 22 26 3 18 -1 22 -21 22
-14 0 -27 -6 -30 -13z m41 -9 c-6 -18 -28 -21 -28 -4 0 9 7 16 16 16 9 0 14
-5 12 -12z"/>
<path d="M3856 4324 c-9 -8 -16 -23 -16 -32 0 -9 -7 -26 -15 -36 -19 -25 -19
-60 0 -76 8 -7 15 -23 15 -36 0 -25 34 -54 64 -54 11 0 29 -8 40 -17 21 -18
21 -18 4 3 -10 11 -18 27 -18 35 0 12 -2 12 -10 -1 -16 -25 -64 -1 -68 35 -2
16 -11 34 -19 40 -19 14 -13 60 7 59 12 -1 15 7 12 31 -3 25 1 36 19 49 13 9
18 16 12 16 -6 0 -19 -7 -27 -16z"/>
<path d="M4309 4293 c6 -12 11 -31 11 -42 0 -12 6 -21 14 -21 8 0 17 -6 19
-12 4 -8 6 -9 6 -2 1 6 -6 17 -14 24 -8 7 -15 18 -15 24 0 7 -7 21 -16 32 -15
18 -15 18 -5 -3z"/>
<path d="M4060 4287 c0 -9 5 -17 10 -17 6 0 10 -8 11 -17 0 -11 3 -13 6 -6 2
7 -3 23 -11 35 -13 18 -16 19 -16 5z"/>
<path d="M4345 4171 c-3 -12 -9 -21 -13 -21 -4 0 -7 -11 -7 -24 0 -14 3 -22 6
-18 10 11 30 75 25 79 -2 3 -7 -5 -11 -16z"/>
<path d="M3944 4156 c-10 -8 -16 -17 -13 -20 3 -3 14 3 24 14 21 23 17 26 -11
6z"/>
<path d="M4249 4153 c-11 -2 -15 -11 -12 -22 2 -10 -3 -25 -12 -35 -18 -18
-70 -22 -80 -6 -9 15 -25 12 -25 -5 0 -25 -45 -40 -75 -27 -36 17 -45 14 -14
-3 15 -8 41 -36 58 -61 35 -53 43 -50 10 3 -33 53 -11 64 43 21 24 -20 49 -33
56 -31 7 3 -7 15 -30 26 -29 15 -43 28 -43 42 0 17 6 20 37 17 20 -2 47 2 60
9 13 7 30 12 38 11 10 -1 11 1 3 4 -19 8 -16 41 5 53 17 11 10 12 -19 4z"/>
<path d="M4290 4091 c0 -6 5 -13 10 -16 6 -3 10 1 10 9 0 9 -4 16 -10 16 -5 0
-10 -4 -10 -9z"/>
<path d="M700 4000 c0 -53 4 -90 10 -90 6 0 10 33 10 80 l0 80 70 0 c40 0 70
4 70 10 0 6 -33 10 -80 10 l-80 0 0 -90z"/>
<path d="M1345 4080 c-3 -5 24 -10 67 -12 l73 -3 6 -80 5 -80 2 93 2 92 -74 0
c-41 0 -77 -4 -81 -10z"/>
<path d="M5122 3998 l2 -93 5 80 6 80 65 3 c98 5 100 22 2 22 l-82 0 2 -92z"/>
<path d="M5765 4080 c3 -5 35 -10 71 -10 l64 0 0 -74 c0 -41 5 -78 10 -81 6
-4 10 27 10 84 l0 91 -81 0 c-51 0 -78 -4 -74 -10z"/>
<path d="M3978 4053 c7 -3 16 -2 19 1 4 3 -2 6 -13 5 -11 0 -14 -3 -6 -6z"/>
<path d="M4255 4019 c-16 -10 -25 -19 -19 -19 7 0 22 9 35 20 30 24 23 24 -16
-1z"/>
<path d="M2070 3940 l0 -90 80 0 c47 0 80 4 80 10 0 6 -30 10 -70 10 l-70 0 0
80 c0 47 -4 80 -10 80 -6 0 -10 -37 -10 -90z"/>
<path d="M2858 3953 l-3 -78 -72 -3 c-99 -4 -93 -22 7 -22 l80 0 0 90 c0 50
-2 90 -5 90 -2 0 -5 -35 -7 -77z"/>
<path d="M3682 3943 l3 -88 69 -3 c97 -4 120 11 26 18 l-75 5 -3 78 c-2 42 -7
77 -13 77 -6 0 -9 -34 -7 -87z"/>
<path d="M4470 3950 l0 -80 -70 0 c-40 0 -70 -4 -70 -10 0 -6 33 -10 80 -10
l80 0 0 90 c0 53 -4 90 -10 90 -6 0 -10 -33 -10 -80z"/>
<path d="M5560 4001 c-29 -15 -68 -65 -83 -106 -2 -5 -13 -2 -24 8 -11 9 -23
17 -26 17 -13 0 -129 -164 -153 -215 -15 -32 -23 -66 -22 -95 1 -37 2 -39 5
-12 4 28 8 32 35 32 21 0 31 6 35 20 7 25 23 26 23 1 0 -13 9 -20 30 -23 17
-3 30 -1 30 4 0 4 -11 8 -25 8 -23 0 -25 4 -25 46 0 53 -11 51 -30 -5 -11 -35
-17 -41 -42 -41 -26 0 -29 3 -23 23 16 51 147 247 166 247 11 0 106 -131 138
-190 26 -48 28 -49 28 -20 0 16 -5 30 -11 30 -15 0 -89 117 -82 129 3 5 1 11
-6 13 -18 6 -1 53 33 92 33 39 86 57 100 35 6 -9 9 -10 9 -2 0 6 10 14 23 16
12 2 2 5 -23 6 -27 0 -59 -6 -80 -18z"/>
<path d="M5729 3974 c42 -37 63 -91 41 -104 -10 -6 -9 -9 0 -12 19 -6 5 -50
-25 -87 -28 -33 -93 -60 -104 -43 -4 6 -12 4 -20 -6 -13 -13 -10 -15 29 -9 50
6 85 30 118 77 39 58 22 155 -36 200 -42 34 -44 22 -3 -16z"/>
<path d="M5631 3934 c0 -18 -8 -34 -16 -38 -20 -7 -19 -40 1 -57 11 -9 20 -10
32 -2 23 14 27 44 9 58 -8 6 -17 24 -20 40 l-4 30 -2 -31z m29 -64 c0 -24 -26
-38 -42 -22 -16 16 -2 42 22 42 13 0 20 -7 20 -20z"/>
<path d="M4120 3930 c0 -5 5 -10 11 -10 5 0 7 5 4 10 -3 6 -8 10 -11 10 -2 0
-4 -4 -4 -10z"/>
<path d="M4165 3930 c-3 -5 -1 -10 4 -10 6 0 11 5 11 10 0 6 -2 10 -4 10 -3 0
-8 -4 -11 -10z"/>
<path d="M1071 3884 c0 -11 3 -14 6 -6 3 7 2 16 -1 19 -3 4 -6 -2 -5 -13z"/>
<path d="M1145 3820 c3 -5 8 -10 11 -10 2 0 4 5 4 10 0 6 -5 10 -11 10 -5 0
-7 -4 -4 -10z"/>
<path d="M1141 3763 c7 -12 15 -20 18 -17 3 2 -3 12 -13 22 -17 16 -18 16 -5
-5z"/>
<path d="M2983 3695 c0 -33 2 -45 4 -27 2 18 2 45 0 60 -2 15 -4 0 -4 -33z"/>
<path d="M4533 3695 c0 -33 2 -45 4 -27 2 18 2 45 0 60 -2 15 -4 0 -4 -33z"/>
<path d="M3730 3714 c0 -8 5 -12 10 -9 6 3 10 10 10 16 0 5 -4 9 -10 9 -5 0
-10 -7 -10 -16z"/>
<path d="M2262 3708 c-17 -17 -15 -43 5 -59 15 -13 15 -12 2 9 -11 18 -11 26
-1 42 14 23 12 26 -6 8z"/>
<path d="M2321 3704 c0 -11 3 -14 6 -6 3 7 2 16 -1 19 -3 4 -6 -2 -5 -13z"/>
<path d="M2473 3680 c0 -25 2 -35 4 -22 2 12 2 32 0 45 -2 12 -4 2 -4 -23z"/>
<path d="M2530 3677 c4 -41 5 -41 8 -8 2 18 0 37 -5 42 -5 5 -6 -11 -3 -34z"/>
<path d="M3790 3681 c0 -23 2 -41 4 -41 8 0 12 71 4 76 -4 3 -8 -13 -8 -35z"/>
<path d="M2051 3694 c0 -11 3 -14 6 -6 3 7 2 16 -1 19 -3 4 -6 -2 -5 -13z"/>
<path d="M2097 3691 c3 -11 14 -27 24 -37 19 -17 19 -16 3 14 -18 37 -34 50
-27 23z"/>
<path d="M2360 3680 c0 -19 3 -21 12 -12 9 9 9 15 0 24 -9 9 -12 7 -12 -12z"/>
<path d="M2680 3686 c0 -9 5 -16 10 -16 6 0 10 4 10 9 0 6 -4 13 -10 16 -5 3
-10 -1 -10 -9z"/>
<path d="M3852 3680 c0 -14 2 -19 5 -12 2 6 2 18 0 25 -3 6 -5 1 -5 -13z"/>
<path d="M4230 3680 c0 -19 3 -21 12 -12 9 9 9 15 0 24 -9 9 -12 7 -12 -12z"/>
<path d="M2870 3680 c0 -5 5 -10 10 -10 6 0 10 5 10 10 0 6 -4 10 -10 10 -5 0
-10 -4 -10 -10z"/>
<path d="M3687 3669 c4 -13 8 -18 11 -10 2 7 -1 18 -6 23 -8 8 -9 4 -5 -13z"/>
<path d="M4420 3680 c0 -5 5 -10 10 -10 6 0 10 5 10 10 0 6 -4 10 -10 10 -5 0
-10 -4 -10 -10z"/>
<path d="M2187 3649 c4 -13 8 -18 11 -10 2 7 -1 18 -6 23 -8 8 -9 4 -5 -13z"/>
<path d="M2321 3654 c0 -11 3 -14 6 -6 3 7 2 16 -1 19 -3 4 -6 -2 -5 -13z"/>
<path d="M5601 3644 c0 -11 3 -14 6 -6 3 7 2 16 -1 19 -3 4 -6 -2 -5 -13z"/>
<path d="M5438 3615 c-6 -14 -15 -25 -20 -25 -4 0 -8 -17 -7 -37 1 -38 1 -38
20 19 18 51 23 57 52 61 l32 4 -33 1 c-26 2 -35 -3 -44 -23z"/>
<path d="M5602 3590 c0 -14 2 -19 5 -12 2 6 2 18 0 25 -3 6 -5 1 -5 -13z"/>
<path d="M5260 3555 c0 -18 45 -74 71 -89 41 -24 47 -19 8 7 -18 12 -44 38
-56 56 -13 19 -23 30 -23 26z"/>
<path d="M5575 3527 c-11 -17 -35 -42 -54 -54 -43 -29 -30 -30 16 -2 18 11 40
34 49 51 21 40 14 43 -11 5z"/>
<path d="M5122 3453 l-2 -93 82 0 c98 0 96 17 -2 22 l-65 3 -6 80 -5 80 -2
-92z"/>
<path d="M5907 3533 c-4 -3 -7 -39 -7 -80 l0 -73 -70 0 c-40 0 -70 -4 -70 -10
0 -6 33 -10 80 -10 l80 0 0 90 c0 90 -1 96 -13 83z"/>
<path d="M700 3445 l0 -85 83 2 82 2 -72 3 -73 4 0 79 c0 47 -4 80 -10 80 -6
0 -10 -35 -10 -85z"/>
<path d="M1258 3523 c7 -3 16 -2 19 1 4 3 -2 6 -13 5 -11 0 -14 -3 -6 -6z"/>
<path d="M1488 3453 l-3 -78 -75 -6 -75 -5 83 -2 82 -2 0 85 c0 47 -2 85 -5
85 -2 0 -5 -35 -7 -77z"/>
<path d="M852 3484 c9 -9 21 -15 27 -13 6 2 -2 10 -17 17 -25 11 -25 11 -10
-4z"/>
<path d="M5388 3443 c6 -2 18 -2 25 0 6 3 1 5 -13 5 -14 0 -19 -2 -12 -5z"/>
<path d="M5448 3443 c6 -2 18 -2 25 0 6 3 1 5 -13 5 -14 0 -19 -2 -12 -5z"/>
<path d="M5043 3195 c0 -33 2 -45 4 -27 2 18 2 45 0 60 -2 15 -4 0 -4 -33z"/>
<path d="M5359 3233 c0 -10 -1 -35 -3 -55 -2 -21 1 -38 6 -38 4 0 8 25 8 55 0
30 -2 55 -5 55 -3 0 -5 -8 -6 -17z"/>
<path d="M4943 3190 c0 -30 2 -43 4 -27 2 15 2 39 0 55 -2 15 -4 2 -4 -28z"/>
<path d="M4996 3227 c3 -10 9 -15 12 -12 3 3 0 11 -7 18 -10 9 -11 8 -5 -6z"/>
<path d="M5440 3190 c0 -29 3 -51 6 -47 8 7 7 87 0 95 -3 3 -6 -19 -6 -48z"/>
<path d="M463 3180 c0 -30 2 -43 4 -27 2 15 2 39 0 55 -2 15 -4 2 -4 -28z"/>
<path d="M1410 3180 c0 -29 3 -51 6 -47 8 7 7 87 0 95 -3 3 -6 -19 -6 -48z"/>
<path d="M5497 3211 c-4 -17 -3 -21 5 -13 5 5 8 16 6 23 -3 8 -7 3 -11 -10z"/>
<path d="M1060 3210 c0 -5 5 -10 10 -10 6 0 10 5 10 10 0 6 -4 10 -10 10 -5 0
-10 -4 -10 -10z"/>
<path d="M1471 3204 c0 -11 3 -14 6 -6 3 7 2 16 -1 19 -3 4 -6 -2 -5 -13z"/>
<path d="M1620 3210 c0 -5 5 -10 10 -10 6 0 10 5 10 10 0 6 -4 10 -10 10 -5 0
-10 -4 -10 -10z"/>
<path d="M5541 3204 c0 -11 3 -14 6 -6 3 7 2 16 -1 19 -3 4 -6 -2 -5 -13z"/>
<path d="M5970 3181 c0 -23 2 -41 4 -41 8 0 12 71 4 76 -4 3 -8 -13 -8 -35z"/>
<path d="M740 3149 c0 -34 2 -60 5 -58 8 9 11 110 3 115 -4 3 -8 -23 -8 -57z"/>
<path d="M890 3171 c0 -23 2 -41 4 -41 8 0 12 71 4 76 -4 3 -8 -13 -8 -35z"/>
<path d="M962 3198 c-7 -7 -11 -21 -11 -32 1 -21 1 -21 6 -1 3 11 10 26 15 33
13 15 6 16 -10 0z"/>
<path d="M1023 3170 c0 -25 2 -35 4 -22 2 12 2 32 0 45 -2 12 -4 2 -4 -23z"/>
<path d="M1271 3194 c0 -11 3 -14 6 -6 3 7 2 16 -1 19 -3 4 -6 -2 -5 -13z"/>
<path d="M1317 3200 c6 -8 13 -28 16 -45 l4 -30 2 31 c0 20 -6 37 -16 45 -16
12 -16 12 -6 -1z"/>
<path d="M1522 3198 c-7 -7 -11 -21 -11 -32 1 -21 1 -21 6 -1 3 11 10 26 15
33 13 15 6 16 -10 0z"/>
<path d="M1583 3170 c0 -25 2 -35 4 -22 2 12 2 32 0 45 -2 12 -4 2 -4 -23z"/>
<path d="M5247 3190 c3 -11 -1 -28 -8 -38 -13 -15 -12 -16 4 -3 18 14 23 46 8
55 -5 4 -7 -3 -4 -14z"/>
<path d="M5597 3203 c-11 -10 -8 -45 2 -38 6 3 9 14 8 25 -1 23 -1 22 -10 13z"/>
<path d="M5929 3180 c-7 -35 -4 -48 7 -38 3 4 4 21 2 40 l-3 33 -6 -35z"/>
<path d="M6032 3180 c0 -19 2 -27 5 -17 2 9 2 25 0 35 -3 9 -5 1 -5 -18z"/>
<path d="M557 3193 c-11 -10 -8 -45 2 -38 6 3 9 14 8 25 -1 23 -1 22 -10 13z"/>
<path d="M853 3165 c0 -22 2 -30 4 -17 2 12 2 30 0 40 -3 9 -5 -1 -4 -23z"/>
<path d="M1123 3165 c0 -22 2 -30 4 -17 2 12 2 30 0 40 -3 9 -5 -1 -4 -23z"/>
<path d="M1682 3170 c0 -19 2 -27 5 -17 2 9 2 25 0 35 -3 9 -5 1 -5 -18z"/>
<path d="M5182 3180 c0 -14 2 -19 5 -12 2 6 2 18 0 25 -3 6 -5 1 -5 -13z"/>
<path d="M500 3180 c-9 -6 -10 -10 -3 -10 6 0 15 5 18 10 8 12 4 12 -15 0z"/>
<path d="M1445 3170 c3 -5 8 -10 11 -10 2 0 4 5 4 10 0 6 -5 10 -11 10 -5 0
-7 -4 -4 -10z"/>
<path d="M5001 3164 c0 -11 3 -14 6 -6 3 7 2 16 -1 19 -3 4 -6 -2 -5 -13z"/>
<path d="M506 3147 c3 -10 9 -15 12 -12 3 3 0 11 -7 18 -10 9 -11 8 -5 -6z"/>
<path d="M806 3143 c-6 -14 -5 -15 5 -6 7 7 10 15 7 18 -3 3 -9 -2 -12 -12z"/>
<path d="M3258 3059 c-73 -17 -232 -105 -275 -152 -57 -62 -96 -126 -98 -162
-1 -16 -12 -49 -24 -72 -28 -57 -27 -75 5 -38 l25 30 -17 -35 c-9 -19 -27 -49
-40 -65 -12 -17 -25 -50 -28 -74 -3 -23 -9 -48 -14 -54 -4 -7 -18 -39 -30 -72
-13 -33 -29 -71 -37 -85 -30 -54 -95 -193 -95 -203 0 -6 9 -2 19 7 19 18 20
17 11 -16 -21 -78 -28 -160 -25 -258 3 -71 -1 -120 -10 -150 -8 -25 -24 -83
-36 -130 -22 -82 -30 -101 -88 -201 -25 -43 -122 -139 -141 -139 -4 0 -10 5
-12 11 -4 11 -32 2 -83 -30 -23 -14 -30 -25 -29 -47 0 -16 -4 -32 -10 -36 -8
-6 -7 -11 2 -17 8 -4 13 -11 12 -15 -1 -4 1 -12 3 -19 5 -11 8 9 11 68 1 13 9
21 26 24 25 3 25 3 6 -18 -11 -12 -14 -21 -8 -21 5 0 8 -9 5 -21 -4 -16 -2
-20 8 -17 7 2 16 15 19 28 3 13 11 25 18 28 9 3 11 -6 6 -35 -4 -27 1 -54 16
-93 18 -45 23 -82 28 -207 2 -84 8 -153 12 -153 13 0 20 28 32 126 9 71 9 110
1 161 -9 47 -9 71 -1 80 12 15 3 75 -19 116 -10 20 -11 33 -5 39 13 13 32 2
32 -18 0 -25 18 -15 29 16 15 46 24 36 19 -22 -3 -28 -2 -65 3 -82 4 -17 10
-56 13 -86 24 -239 29 -267 57 -275 10 -3 21 -14 24 -25 3 -10 13 -21 21 -24
13 -5 14 5 10 67 -11 148 -17 391 -10 384 5 -4 28 -48 53 -97 25 -50 64 -115
86 -145 33 -45 41 -51 43 -34 2 11 -2 27 -8 34 -7 8 -25 42 -41 75 -22 46 -28
74 -27 116 2 65 4 66 91 68 60 1 61 1 69 34 5 17 13 32 19 32 5 0 32 -48 60
-107 27 -59 67 -132 87 -162 64 -95 112 -178 112 -195 0 -9 5 -16 10 -16 30 0
-7 89 -101 241 -34 55 -68 117 -75 137 -16 44 -18 102 -4 102 6 0 10 -6 10
-14 0 -7 7 -20 17 -27 15 -13 16 -11 9 24 -5 25 -3 37 5 37 6 0 9 7 5 15 -3 8
0 15 6 15 9 0 9 3 0 12 -7 7 -12 20 -12 29 0 9 -7 22 -15 29 -17 15 -20 30 -4
30 13 0 83 -77 85 -94 1 -6 2 -15 3 -21 1 -5 5 -4 10 3 15 25 85 -114 122
-243 93 -327 102 -386 95 -620 -4 -110 -9 -225 -12 -255 -10 -89 5 -52 31 82
18 94 25 169 29 307 4 164 6 185 24 204 11 12 43 56 72 97 49 69 246 300 257
300 2 0 -9 -26 -25 -58 -16 -31 -40 -91 -54 -132 -22 -63 -23 -77 -12 -88 15
-14 17 -46 5 -77 -5 -11 -6 -26 -4 -32 8 -20 23 -4 23 23 0 13 5 24 10 24 6 0
10 9 10 20 0 11 6 20 13 20 9 0 19 22 26 58 16 70 93 194 116 186 8 -4 22 -1
30 6 19 15 45 -3 45 -31 0 -25 15 -32 30 -14 7 8 17 15 22 15 5 0 21 9 35 20
14 11 33 20 42 20 21 0 155 152 193 218 l28 47 -55 52 c-61 58 -94 115 -95
164 -1 106 1 135 12 168 7 20 19 42 26 50 7 7 10 22 6 33 -7 22 4 113 13 104
13 -12 21 -92 11 -104 -16 -18 -5 -24 25 -13 44 17 45 71 2 196 -39 113 -61
165 -113 275 -30 63 -56 130 -57 150 -1 19 -7 45 -14 58 -6 12 -21 52 -32 89
-52 168 -168 363 -273 460 -86 78 -143 100 -216 83 -37 -9 -58 -9 -81 -1 -37
13 -88 13 -141 0z m22 -359 c0 -5 -7 -10 -15 -10 -8 0 -15 5 -15 10 0 6 7 10
15 10 8 0 15 -4 15 -10z m160 0 c0 -5 -4 -10 -10 -10 -5 0 -10 5 -10 10 0 6 5
10 10 10 6 0 10 -4 10 -10z m-80 -75 c0 -8 -4 -15 -9 -15 -13 0 -22 16 -14 24
11 11 23 6 23 -9z m-239 -68 c-13 -13 -26 -3 -16 12 3 6 11 8 17 5 6 -4 6 -10
-1 -17z m479 3 c0 -5 -7 -10 -15 -10 -8 0 -15 5 -15 10 0 6 7 10 15 10 8 0 15
-4 15 -10z m-669 -45 c-1 -15 -24 -12 -29 3 -3 9 2 13 12 10 10 -1 17 -7 17
-13z m859 5 c0 -5 -4 -10 -9 -10 -6 0 -13 5 -16 10 -3 6 1 10 9 10 9 0 16 -4
16 -10z m-375 -61 c4 -5 19 -9 35 -9 25 0 32 -6 45 -37 8 -20 13 -38 11 -41
-3 -2 6 -16 20 -31 27 -29 29 -25 -39 -76 -15 -11 -27 -26 -27 -34 0 -8 -10
-26 -22 -39 -21 -21 -23 -33 -22 -112 1 -84 3 -93 38 -150 41 -70 43 -80 17
-80 -11 0 -28 -15 -40 -35 l-21 -36 22 -29 c12 -17 19 -33 15 -36 -4 -4 -66
-9 -139 -11 -105 -2 -134 -6 -141 -18 -15 -28 2 -32 53 -15 44 15 56 16 88 4
20 -7 54 -13 75 -14 20 0 37 -4 37 -8 0 -17 -25 -32 -52 -32 -32 0 -55 -32
-35 -48 7 -6 40 -14 72 -17 33 -4 62 -8 64 -11 2 -2 -2 -17 -9 -33 -16 -40
-55 -65 -91 -57 -15 3 -31 1 -34 -4 -3 -6 -27 -10 -53 -10 l-47 -1 24 -19 c13
-11 31 -20 40 -20 10 0 31 -17 47 -37 16 -20 52 -47 81 -60 47 -22 52 -27 58
-64 8 -45 39 -84 61 -75 10 4 14 -2 14 -21 0 -21 2 -24 15 -13 47 39 -32 -88
-84 -134 -11 -11 -21 -27 -21 -37 0 -10 -15 -33 -34 -51 -19 -19 -38 -47 -41
-63 -9 -38 -32 -75 -46 -75 -7 0 -9 10 -5 25 4 14 2 33 -4 42 -6 10 -26 63
-46 118 -36 102 -76 181 -143 283 -62 94 -87 145 -74 149 8 3 9 28 5 85 -4 72
-10 90 -48 158 -62 109 -106 248 -108 334 -1 69 -1 69 34 89 30 17 39 18 65 7
79 -32 121 -38 161 -24 38 13 84 57 84 82 0 6 5 12 10 12 18 0 11 18 -20 53
-29 34 -29 35 -9 40 l21 6 -22 30 c-12 17 -26 31 -31 31 -19 0 -8 40 17 57 14
10 34 26 45 36 10 9 24 17 29 17 6 0 10 8 10 18 1 16 2 16 15 -2 13 -17 14
-17 21 10 4 16 8 31 10 34 5 10 43 9 49 -1z m-400 -109 c3 -6 -1 -13 -10 -16
-19 -8 -30 0 -20 15 8 14 22 14 30 1z m695 -10 c0 -5 -7 -10 -15 -10 -8 0 -15
5 -15 10 0 6 7 10 15 10 8 0 15 -4 15 -10z m-777 -65 c-3 -9 -8 -14 -10 -11
-3 3 -2 9 2 15 9 16 15 13 8 -4z m-103 -20 c0 -8 -4 -15 -10 -15 -5 0 -10 7
-10 15 0 8 5 15 10 15 6 0 10 -7 10 -15z m1054 -6 c-3 -5 -10 -7 -15 -3 -5 3
-7 10 -3 15 3 5 10 7 15 3 5 -3 7 -10 3 -15z m-739 -70 c0 -7 -8 -15 -17 -17
-18 -3 -25 18 -11 32 10 10 28 1 28 -15z m448 -34 c0 -32 -5 -37 -27 -29 -16
6 -23 63 -9 78 12 11 36 -21 36 -49z m-468 -25 c3 -5 1 -10 -4 -10 -6 0 -11 5
-11 10 0 6 2 10 4 10 3 0 8 -4 11 -10z m627 -159 c19 -58 15 -106 -8 -97 -10
4 -11 -1 -5 -17 9 -26 4 -57 -10 -57 -5 0 -9 -7 -9 -16 0 -18 -87 -104 -104
-104 -6 0 -4 5 4 10 13 8 13 13 -3 40 -10 16 -16 34 -12 40 3 5 -3 14 -14 19
-33 18 -69 93 -76 158 l-7 60 88 9 c144 14 137 17 156 -45z m-1042 -41 c0 -5
-4 -10 -10 -10 -5 0 -10 5 -10 10 0 6 5 10 10 10 6 0 10 -4 10 -10z m1300 0
c0 -5 -4 -10 -10 -10 -5 0 -10 5 -10 10 0 6 5 10 10 10 6 0 10 -4 10 -10z
m-1090 -130 c0 -5 -4 -10 -10 -10 -5 0 -10 5 -10 10 0 6 5 10 10 10 6 0 10 -4
10 -10z m872 -5 c0 -5 -5 -11 -11 -13 -6 -2 -11 4 -11 13 0 9 5 15 11 13 6 -2
11 -8 11 -13z m-302 -31 c0 -8 -7 -14 -15 -14 -15 0 -21 21 -9 33 10 9 24 -2
24 -19z m-700 -104 c0 -5 -4 -10 -10 -10 -5 0 -10 5 -10 10 0 6 5 10 10 10 6
0 10 -4 10 -10z m1140 0 c0 -5 -4 -10 -10 -10 -5 0 -10 5 -10 10 0 6 5 10 10
10 6 0 10 -4 10 -10z m-567 -225 c1 -5 -6 -11 -15 -13 -11 -2 -18 3 -18 13 0
17 30 18 33 0z m267 -56 c0 -5 -7 -9 -15 -9 -15 0 -20 12 -9 23 8 8 24 -1 24
-14z m274 -176 c15 -18 24 -33 19 -32 -4 0 -26 22 -48 47 -22 25 -31 39 -19
31 12 -8 33 -29 48 -46z m-216 15 c-13 -18 -27 -41 -31 -50 -3 -10 -16 -18
-29 -18 -19 0 -16 6 27 50 57 58 67 63 33 18z m-908 -60 c0 -19 -18 -43 -25
-36 -4 3 -2 16 5 27 12 24 20 27 20 9z m1218 -60 c15 -15 16 -28 2 -28 -5 0
-10 6 -10 14 0 8 -6 17 -12 19 -7 3 -8 6 -2 6 5 1 15 -4 22 -11z"/>
<path d="M4404 2700 c0 -63 1 -89 3 -57 2 31 2 83 0 115 -2 31 -3 5 -3 -58z"/>
<path d="M280 2620 c0 -110 18 -121 22 -12 l3 77 68 3 c94 4 84 22 -13 22
l-80 0 0 -90z"/>
<path d="M926 2701 c-4 -6 21 -11 66 -13 l73 -3 3 -77 c2 -43 7 -78 13 -78 6
0 9 34 7 88 l-3 87 -77 3 c-43 2 -79 -2 -82 -7z"/>
<path d="M5717 2703 c-11 -10 -8 -173 3 -173 5 0 10 35 12 78 l3 77 73 3 c43
2 70 7 67 12 -7 11 -148 14 -158 3z"/>
<path d="M6360 2700 c0 -5 30 -10 68 -12 l67 -3 3 -77 c4 -109 22 -98 22 12
l0 90 -80 0 c-44 0 -80 -4 -80 -10z"/>
<path d="M6088 2623 c18 -2 45 -2 60 0 15 2 0 4 -33 4 -33 0 -45 -2 -27 -4z"/>
<path d="M5985 2598 c-22 -11 -49 -28 -59 -37 -25 -21 -76 -91 -76 -104 0 -6
14 11 31 36 34 52 65 77 131 107 24 11 36 19 28 19 -8 0 -33 -9 -55 -21z"/>
<path d="M6195 2610 c27 -12 43 -12 25 0 -8 5 -22 9 -30 9 -10 0 -8 -3 5 -9z"/>
<path d="M6240 2596 c0 -2 18 -15 40 -30 48 -32 89 -91 106 -154 9 -32 13 -39
13 -21 1 41 -47 126 -96 169 -40 35 -63 48 -63 36z"/>
<path d="M505 2580 c-33 -13 -82 -72 -95 -114 -14 -45 -7 -103 19 -154 45 -88
219 -211 281 -197 42 9 175 100 209 144 62 77 76 164 40 238 -38 79 -113 110
-193 79 -25 -9 -50 -23 -56 -31 -10 -12 -20 -10 -64 15 -53 30 -101 37 -141
20z m103 -15 c20 -9 47 -26 59 -37 l23 -21 23 21 c35 33 96 55 134 47 71 -13
133 -113 118 -192 -8 -47 -46 -46 -96 3 l-38 37 -32 -52 c-17 -29 -35 -49 -39
-44 -4 4 -18 36 -30 71 -13 34 -28 61 -34 59 -6 -2 -23 -41 -37 -87 -15 -47
-31 -86 -37 -88 -5 -1 -21 25 -33 59 -13 34 -30 64 -38 67 -9 3 -25 -8 -41
-26 -27 -33 -72 -43 -86 -20 -14 23 -6 98 16 136 22 40 80 81 113 82 10 0 34
-7 55 -15z m122 -211 c13 -37 27 -63 33 -61 7 2 25 27 41 57 l29 53 28 -31
c16 -17 40 -34 54 -38 31 -8 31 -12 -2 -57 -33 -43 -114 -106 -177 -136 l-44
-22 -63 32 c-60 30 -189 144 -189 167 0 5 12 13 28 17 15 3 36 18 48 32 11 15
25 23 31 20 5 -3 22 -38 37 -77 16 -39 33 -69 39 -67 6 2 24 42 40 90 16 48
32 87 37 87 5 0 18 -29 30 -66z"/>
<path d="M6083 2583 c15 -2 27 -10 27 -16 0 -9 2 -9 8 -1 4 7 18 14 32 17 14
2 -2 4 -35 4 -33 0 -48 -2 -32 -4z"/>
<path d="M6241 2547 c20 -14 33 -30 31 -40 -2 -11 2 -15 11 -11 17 6 46 -35
63 -91 7 -22 13 -31 13 -20 1 22 -30 91 -51 115 -23 26 -79 70 -90 70 -6 0 4
-10 23 -23z"/>
<path d="M5948 2523 c-57 -52 -78 -103 -76 -183 0 -36 3 -52 5 -35 3 16 10 33
16 37 9 6 9 8 0 8 -34 0 12 138 49 148 10 2 18 10 18 17 0 7 10 20 23 28 12 9
19 16 15 16 -5 1 -27 -16 -50 -36z"/>
<path d="M6143 2513 c18 -4 17 -6 -4 -29 l-22 -24 23 0 c13 0 20 3 17 7 -4 3
3 17 15 30 l21 23 -34 -1 c-19 -1 -26 -3 -16 -6z"/>
<path d="M6263 2423 c4 -3 -3 -17 -15 -30 l-21 -23 22 0 c13 0 20 4 16 11 -4
5 1 19 11 30 16 18 16 19 -1 19 -10 0 -15 -3 -12 -7z"/>
<path d="M5832 2380 c0 -19 2 -27 5 -17 2 9 2 25 0 35 -3 9 -5 1 -5 -18z"/>
<path d="M6038 2393 c-20 -5 -21 -9 -8 -38 5 -11 9 -14 9 -6 1 16 51 6 63 -12
12 -19 9 -135 -3 -139 -7 -2 -6 -8 3 -16 12 -10 19 -8 33 8 18 20 18 21 1 14
-17 -6 -18 -1 -15 69 l4 75 -38 12 c-27 8 -37 16 -33 26 3 8 4 13 3 13 -1 -1
-10 -3 -19 -6z"/>
<path d="M4026 2357 c3 -10 9 -15 12 -12 3 3 0 11 -7 18 -10 9 -11 8 -5 -6z"/>
<path d="M6342 2351 c-11 -6 -10 -10 4 -15 20 -8 32 0 18 14 -5 5 -15 5 -22 1z"/>
<path d="M6185 2330 c4 -6 1 -17 -5 -25 -10 -12 -9 -15 6 -15 13 0 19 8 20 25
1 16 -3 25 -13 25 -8 0 -11 -5 -8 -10z"/>
<path d="M5831 2304 c-2 -45 54 -148 99 -184 42 -34 100 -60 127 -59 10 0 -3
7 -28 15 -88 27 -169 121 -189 217 -7 37 -8 39 -9 11z"/>
<path d="M6265 2272 c-77 -26 -107 -101 -66 -169 19 -30 56 -51 68 -39 4 3 -1
6 -9 6 -27 0 -68 58 -68 95 0 43 39 90 80 99 57 11 102 -20 123 -84 4 -10 6
-8 6 5 1 30 -27 65 -65 81 -36 15 -39 15 -69 6z"/>
<path d="M5904 2215 c33 -68 109 -115 195 -121 31 -2 48 -1 39 2 -9 3 -19 13
-21 22 -4 15 -5 14 -6 -2 -1 -16 -6 -17 -38 -11 -53 10 -113 45 -113 67 0 11
-5 15 -15 12 -8 -4 -15 -2 -15 2 0 5 -10 20 -21 34 l-20 25 15 -30z"/>
<path d="M6222 2175 c4 -25 43 -32 52 -9 6 15 4 15 -10 3 -14 -11 -18 -10 -31
6 -15 20 -15 20 -11 0z"/>
<path d="M6310 2172 c0 -21 30 -26 48 -7 16 16 16 16 -6 4 -19 -12 -24 -12
-32 1 -7 10 -10 11 -10 2z"/>
<path d="M6387 2130 c-4 -19 -18 -37 -39 -50 -20 -12 -27 -20 -16 -20 21 0 68
56 68 81 0 28 -7 23 -13 -11z"/>
<path d="M6508 2150 c-4 -8 -9 -46 -10 -85 l-3 -70 -67 -3 c-93 -4 -86 -22 7
-22 54 0 77 4 81 13 8 21 0 184 -8 167z"/>
<path d="M282 2063 l3 -88 78 -3 c46 -2 77 1 77 7 0 6 -30 11 -67 13 l-68 3
-3 78 c-2 42 -7 77 -13 77 -6 0 -9 -34 -7 -87z"/>
<path d="M1068 2073 l-3 -78 -75 -5 c-94 -7 -71 -22 26 -18 l69 3 3 88 c2 53
-1 87 -7 87 -6 0 -11 -35 -13 -77z"/>
<path d="M5712 2063 l3 -88 69 -3 c97 -4 120 11 26 18 l-75 5 -3 78 c-2 42 -7
77 -13 77 -6 0 -9 -34 -7 -87z"/>
<path d="M6310 2100 c-9 -6 -10 -10 -3 -10 6 0 15 5 18 10 8 12 4 12 -15 0z"/>
<path d="M2581 1894 c0 -11 3 -14 6 -6 3 7 2 16 -1 19 -3 4 -6 -2 -5 -13z"/>
<path d="M272 1810 c0 -45 1 -50 8 -27 5 15 5 39 0 55 -7 22 -8 17 -8 -28z"/>
<path d="M659 1849 c-2 -29 3 -74 9 -81 4 -4 6 13 5 38 -1 43 -12 74 -14 43z"/>
<path d="M760 1810 c0 -29 3 -51 6 -47 8 7 7 87 0 95 -3 3 -6 -19 -6 -48z"/>
<path d="M816 1846 c5 -13 2 -23 -10 -31 -15 -12 -15 -14 1 -32 10 -10 14 -13
9 -6 -6 9 -4 23 4 39 11 19 11 27 1 37 -10 9 -11 8 -5 -7z"/>
<path d="M969 1849 c-2 -29 3 -74 9 -81 4 -4 6 13 5 38 -1 43 -12 74 -14 43z"/>
<path d="M6433 1805 c0 -33 2 -45 4 -27 2 18 2 45 0 60 -2 15 -4 0 -4 -33z"/>
<path d="M5603 1831 c1 -14 9 -26 17 -28 10 -3 11 -2 4 4 -7 4 -14 17 -17 28
-5 16 -5 15 -4 -4z"/>
<path d="M6100 1835 c-7 -9 -11 -17 -9 -20 3 -2 10 5 17 15 14 24 10 26 -8 5z"/>
<path d="M6167 1840 c6 -8 13 -26 16 -40 l4 -25 2 26 c0 15 -7 33 -16 40 -16
12 -17 12 -6 -1z"/>
<path d="M6511 1810 l1 -45 8 35 c5 20 5 39 -1 45 -5 5 -9 -8 -8 -35z"/>
<path d="M392 1828 c-17 -17 -15 -43 6 -59 15 -12 16 -12 7 1 -12 18 -13 40
-2 58 10 15 5 16 -11 0z"/>
<path d="M437 1829 c7 -9 10 -19 6 -22 -3 -4 -1 -7 5 -7 17 0 15 16 -5 31 -16
12 -17 12 -6 -2z"/>
<path d="M492 1828 c-17 -17 -15 -43 5 -59 15 -13 15 -12 2 9 -11 18 -11 26
-1 42 14 23 12 26 -6 8z"/>
<path d="M551 1824 c0 -11 3 -14 6 -6 3 7 2 16 -1 19 -3 4 -6 -2 -5 -13z"/>
<path d="M601 1824 c0 -11 3 -14 6 -6 3 7 2 16 -1 19 -3 4 -6 -2 -5 -13z"/>
<path d="M865 1830 c-3 -6 1 -7 9 -4 18 7 21 14 7 14 -6 0 -13 -4 -16 -10z"/>
<path d="M923 1800 c0 -22 4 -40 8 -40 5 0 9 18 9 40 0 22 -4 40 -9 40 -4 0
-8 -18 -8 -40z"/>
<path d="M341 1814 c0 -11 3 -14 6 -6 3 7 2 16 -1 19 -3 4 -6 -2 -5 -13z"/>
<path d="M1091 1814 c0 -11 3 -14 6 -6 3 7 2 16 -1 19 -3 4 -6 -2 -5 -13z"/>
<path d="M5742 1818 c-17 -17 -15 -43 6 -59 15 -12 16 -12 7 1 -12 18 -13 40
-2 58 10 15 5 16 -11 0z"/>
<path d="M5787 1819 c7 -9 10 -19 6 -22 -3 -4 -1 -7 5 -7 17 0 15 16 -5 31
-16 12 -17 12 -6 -2z"/>
<path d="M5842 1818 c-17 -17 -15 -43 6 -59 15 -12 16 -12 7 1 -12 18 -13 40
-2 58 10 15 5 16 -11 0z"/>
<path d="M5887 1819 c7 -9 10 -19 6 -22 -3 -4 -1 -7 5 -7 17 0 15 16 -5 31
-16 12 -17 12 -6 -2z"/>
<path d="M5941 1814 c0 -11 3 -14 6 -6 3 7 2 16 -1 19 -3 4 -6 -2 -5 -13z"/>
<path d="M6001 1813 c12 -20 12 -26 0 -45 -13 -21 -13 -22 2 -9 10 7 17 21 17
31 0 10 -7 24 -17 31 -15 13 -15 12 -2 -8z"/>
<path d="M6278 1790 c-2 -22 0 -40 4 -40 5 0 8 18 8 40 0 22 -2 40 -4 40 -2 0
-6 -18 -8 -40z"/>
<path d="M6325 1819 c-11 -16 -1 -19 13 -3 7 8 8 14 3 14 -5 0 -13 -5 -16 -11z"/>
<path d="M6389 1828 c-5 -24 -4 -78 3 -78 4 0 8 18 8 40 0 22 -2 40 -5 40 -3
0 -5 -1 -6 -2z"/>
<path d="M6473 1790 c0 -25 2 -35 4 -22 2 12 2 32 0 45 -2 12 -4 2 -4 -23z"/>
<path d="M6220 1791 c0 -17 4 -32 8 -35 4 -2 6 11 4 30 -5 42 -12 45 -12 5z"/>
<path d="M1020 1800 c0 -5 5 -10 10 -10 6 0 10 5 10 10 0 6 -4 10 -10 10 -5 0
-10 -4 -10 -10z"/>
<path d="M5645 1790 c3 -5 8 -10 11 -10 2 0 4 5 4 10 0 6 -5 10 -11 10 -5 0
-7 -4 -4 -10z"/>
<path d="M551 1774 c0 -11 3 -14 6 -6 3 7 2 16 -1 19 -3 4 -6 -2 -5 -13z"/>
<path d="M6090 1781 c0 -6 4 -13 10 -16 6 -3 7 1 4 9 -7 18 -14 21 -14 7z"/>
<path d="M867 1769 c7 -7 15 -10 18 -7 3 3 -2 9 -12 12 -14 6 -15 5 -6 -5z"/>
<path d="M5941 1764 c0 -11 3 -14 6 -6 3 7 2 16 -1 19 -3 4 -6 -2 -5 -13z"/>
<path d="M6320 1771 c0 -10 19 -25 25 -20 1 2 -3 10 -11 17 -8 7 -14 8 -14 3z"/>
<path d="M6162 1761 c-11 -6 -10 -10 0 -19 11 -8 14 -7 14 9 0 10 0 19 -1 19
0 0 -6 -4 -13 -9z"/>
<path d="M6588 1740 c-5 -33 6 -28 17 8 3 12 2 22 -3 22 -5 0 -12 -14 -14 -30z"/>
<path d="M4261 1288 c-6 -7 -33 -49 -60 -93 -118 -196 -143 -238 -217 -365
-44 -74 -85 -147 -92 -162 l-12 -28 49 0 48 0 57 88 c92 141 205 393 206 459
0 10 9 38 20 62 21 45 21 63 1 39z"/>
<path d="M4287 1276 c-4 -10 -1 -13 9 -9 7 3 14 9 14 14 0 14 -17 10 -23 -5z"/>
<path d="M4503 1199 c-22 -28 -47 -86 -63 -149 -49 -188 -65 -244 -96 -336
-28 -84 -32 -107 -24 -131 8 -22 6 -41 -9 -84 l-19 -55 24 -28 c27 -31 32 -66
8 -66 -17 0 -44 -57 -44 -95 0 -14 11 -42 24 -63 39 -59 42 -86 11 -100 -14
-7 -35 -12 -47 -12 -16 0 -19 -4 -14 -22 3 -13 6 -26 6 -30 0 -13 225 -9 237
3 8 8 13 8 17 0 4 -6 34 -11 68 -11 54 0 59 2 52 18 -4 9 -8 27 -8 40 -1 17
-6 22 -18 18 -15 -3 -18 3 -18 34 0 20 -4 60 -10 89 -6 33 -6 60 0 77 9 24 8
26 -10 21 -27 -7 -25 9 5 45 14 16 25 34 25 39 0 18 -15 9 -35 -20 -26 -40
-30 -32 -10 26 9 26 18 73 20 103 7 112 18 158 65 283 47 126 47 127 24 127
-28 0 -83 -78 -118 -167 -43 -109 -79 -298 -80 -415 -1 -60 -4 -108 -7 -108
-3 0 -18 27 -34 59 -26 56 -28 66 -28 202 -1 141 23 400 44 489 14 56 42 135
64 178 18 35 17 64 -2 41z"/>
<path d="M4532 1151 c-24 -42 -42 -147 -40 -231 l1 -55 7 65 c9 92 40 200 57
200 10 0 12 8 7 28 -4 15 -8 28 -9 29 -1 2 -11 -15 -23 -36z"/>
<path d="M4610 1130 c0 -5 5 -10 11 -10 5 0 7 5 4 10 -3 6 -8 10 -11 10 -2 0
-4 -4 -4 -10z"/>
<path d="M2162 1058 c-14 -14 -16 -28 -3 -28 9 0 24 30 18 36 -2 2 -9 -2 -15
-8z"/>
<path d="M4735 1031 c19 -22 55 -46 55 -38 0 3 -17 17 -37 33 -31 23 -34 24
-18 5z"/>
<path d="M4715 938 c-10 -31 -25 -94 -25 -107 0 -11 3 -11 16 0 23 19 56 89
50 105 -7 17 -35 18 -41 2z"/>
<path d="M2240 928 c1 -7 7 -40 15 -73 8 -33 15 -78 14 -100 l0 -40 -14 30
c-7 17 -14 26 -16 20 -5 -23 -3 -75 3 -75 3 0 4 -9 1 -20 -7 -26 -15 -25 -43
5 -16 18 -26 22 -31 13 -6 -10 14 -54 32 -68 35 -28 68 -184 54 -252 -14 -61
-25 -26 -49 161 -2 16 -14 29 -38 39 -28 12 -37 23 -46 58 -12 43 -10 59 10
100 10 22 -3 64 -21 64 -11 0 -47 -42 -55 -65 -4 -11 -11 -77 -16 -146 -6 -94
-14 -139 -31 -180 -12 -30 -25 -58 -29 -62 -4 -4 -20 11 -36 35 -16 24 -42 55
-57 69 -45 42 -107 141 -107 172 0 15 -5 27 -11 27 -7 0 -9 12 -5 35 7 35 -6
49 -18 19 -16 -40 8 -144 57 -249 28 -61 32 -79 30 -145 -1 -46 -9 -98 -22
-134 l-21 -59 25 -44 26 -43 216 0 c209 0 218 1 240 22 l23 21 0 -21 c0 -17 6
-22 25 -22 24 0 24 0 20 85 -3 67 -9 93 -26 116 -19 27 -20 38 -14 107 9 95
10 81 -14 293 -21 184 -47 319 -62 319 -5 0 -9 -6 -9 -12z m49 -308 c0 -23 -1
-23 -9 -5 -5 11 -9 29 -9 40 -1 17 1 17 9 5 5 -8 9 -26 9 -40z"/>
<path d="M1956 880 c-20 -22 -36 -46 -36 -53 1 -12 54 44 71 76 15 27 4 20
-35 -23z"/>
<path d="M4876 861 c-16 -17 -28 -33 -25 -35 8 -8 61 42 58 53 -3 7 -17 -1
-33 -18z"/>
<path d="M2070 805 c-18 -21 -3 -32 16 -13 10 9 12 18 6 22 -5 3 -15 -1 -22
-9z"/>
<path d="M4930 748 c0 -20 5 -40 10 -43 13 -8 13 45 0 65 -7 11 -10 6 -10 -22z"/>
<path d="M2145 720 c-3 -5 -1 -10 4 -10 6 0 11 5 11 10 0 6 -2 10 -4 10 -3 0
-8 -4 -11 -10z"/>
<path d="M4890 645 c-1 -38 -1 -95 1 -125 3 -68 2 -78 -7 -112 -4 -18 -2 -28
4 -28 6 0 14 17 17 38 4 20 10 47 16 60 5 12 12 46 15 75 5 43 1 62 -20 107
l-25 55 -1 -70z"/>
<path d="M2611 602 c-17 -31 -25 -96 -12 -87 13 7 24 32 35 78 7 30 -8 37 -23
9z"/>
<path d="M5049 585 c-22 -12 -28 -26 -41 -92 -14 -73 -14 -153 1 -153 18 1 40
30 50 65 18 67 36 85 81 81 21 -2 43 -7 48 -10 5 -3 17 1 27 8 32 23 12 58
-47 83 -77 32 -90 34 -119 18z"/>
<path d="M2836 399 c-13 -30 -28 -67 -32 -82 -3 -16 -13 -31 -20 -34 -18 -7
-18 -19 1 -27 9 -3 21 4 31 19 17 27 57 165 49 173 -2 2 -15 -20 -29 -49z"/>
<path d="M4217 242 c-17 -35 -14 -42 19 -42 32 0 36 12 15 44 l-19 28 -15 -30z"/>
<path d="M2576 234 c-49 -14 -105 -34 -124 -46 -34 -21 -35 -22 -14 -31 16 -8
27 -6 40 6 24 22 100 53 150 62 41 7 60 19 45 28 -5 2 -48 -6 -97 -19z"/>
<path d="M3570 251 c0 -24 48 -59 104 -75 31 -9 60 -24 63 -32 3 -8 -2 -34
-11 -57 -9 -24 -16 -48 -16 -55 0 -9 52 -12 210 -12 l210 0 0 28 c0 21 -10 34
-48 59 -72 48 -84 52 -256 99 -183 50 -256 63 -256 45z"/>
<path d="M4182 164 c-12 -8 -22 -22 -22 -31 0 -13 3 -13 16 -3 14 13 38 50 32
50 -2 0 -14 -7 -26 -16z"/>
<path d="M4295 130 c-3 -5 1 -10 9 -10 9 0 16 5 16 10 0 6 -4 10 -9 10 -6 0
-13 -4 -16 -10z"/>
<path d="M3167 113 c-4 -3 -7 -16 -6 -27 0 -19 1 -19 10 3 10 24 8 36 -4 24z"/>
<path d="M3500 111 c0 -6 19 -28 42 -51 32 -30 50 -40 75 -40 18 0 33 2 33 4
0 4 -96 68 -127 85 -14 7 -23 8 -23 2z"/>
<path d="M3268 85 c-6 -30 -3 -43 8 -33 3 4 4 19 2 35 l-3 28 -7 -30z"/>
<path d="M3095 30 c-4 -6 7 -10 25 -10 18 0 29 4 25 10 -3 6 -15 10 -25 10
-10 0 -22 -4 -25 -10z"/>
</g>
</svg>
