<!DOCTYPE svg PUBLIC "-//W3C//DTD SVG 1.1//EN" "http://www.w3.org/Graphics/SVG/1.1/DTD/svg11.dtd">
<!-- Uploaded to: SVG Repo, www.svgrepo.com, Transformed by: SVG Repo Mixer Tools -->
<svg width="800px" height="800px" viewBox="-12.8 -12.8 89.60 89.60" fill="none" xmlns="http://www.w3.org/2000/svg">
<g id="SVGRepo_bgCarrier" stroke-width="0">
<path transform="translate(-12.8, -12.8), scale(5.6)" fill="#ffffff" d="M9.166.33a2.25 2.25 0 00-2.332 0l-5.25 3.182A2.25 2.25 0 00.5 5.436v5.128a2.25 2.25 0 001.084 1.924l5.25 3.182a2.25 2.25 0 002.332 0l5.25-3.182a2.25 2.25 0 001.084-1.924V5.436a2.25 2.25 0 00-1.084-1.924L9.166.33z" strokewidth="0"/>
</g>
<g id="SVGRepo_tracerCarrier" stroke-linecap="round" stroke-linejoin="round"/>
<g id="SVGRepo_iconCarrier"> <g clip-path="url(#clip0_14_1971)"> <path d="M21.486 55.94L48.453 55.94C50.935 55.94 52.947 53.928 52.947 51.446L52.947 12.494C52.947 10.012 50.935 8 48.453 8L21.486 8C19.004 8 16.992 10.012 16.992 12.494L16.992 51.446C16.992 53.928 19.004 55.94 21.486 55.94Z" stroke="#000000" stroke-width="4" stroke-linecap="round" stroke-linejoin="round"/> <path d="M28.976 26.011L34.969 31.97L28.976 37.996" stroke="#f07b22" stroke-width="4" stroke-linecap="round" stroke-linejoin="round"/> <path d="M34.969 31.97H11" stroke="#f07b22" stroke-width="4" stroke-linecap="round" stroke-linejoin="round"/> </g> <defs> <clipPath id="clip0_14_1971"> <rect width="45.947" height="51.94" fill="white" transform="translate(9 6)"/> </clipPath> </defs> </g>
</svg>