<?xml version="1.0" encoding="UTF-8"?>
<svg id="Layer_2" data-name="Layer 2" xmlns="http://www.w3.org/2000/svg" viewBox="0 0 357.63 409.22">
  <defs>
    <style>
      .cls-1 {
        fill: #fff;
      }

      .cls-2 {
        fill: #6e6f71;
      }

      .cls-3 {
        fill: #ee7a22;
      }
    </style>
  </defs>
  <g id="Layer_1-2" data-name="Layer 1">
    <g>
      <g>
        <circle class="cls-3" cx="178.82" cy="178.82" r="178.82"/>
        <polygon class="cls-1" points="242.18 137.77 183.72 103.06 183.72 103.08 183.72 103.06 182.86 102.56 163.92 113.61 163.92 226.13 163.88 226.09 124.9 203.59 85.85 181.02 124.9 158.48 152.14 142.74 152.14 120.41 115.44 141.62 47.15 181.02 115.44 220.45 175.41 255.07 183.69 250.29 183.69 125.56 232.73 154.65 271.77 177.21 232.73 199.74 205.48 215.47 205.48 237.82 242.18 216.63 310.48 177.21 242.18 137.77"/>
      </g>
      <path class="cls-2" d="m20.57,373.92h12.82c2.89,0,5.09.22,6.61.66,2.04.6,3.78,1.67,5.24,3.2s2.56,3.41,3.32,5.63,1.14,4.96,1.14,8.21c0,2.86-.36,5.32-1.07,7.39-.87,2.53-2.11,4.57-3.72,6.14-1.22,1.18-2.86,2.11-4.93,2.77-1.55.49-3.62.73-6.21.73h-13.2v-34.73Zm7.01,5.88v23h5.24c1.96,0,3.37-.11,4.24-.33,1.14-.28,2.08-.77,2.83-1.45.75-.68,1.36-1.8,1.83-3.35s.71-3.67.71-6.36-.24-4.75-.71-6.18-1.14-2.56-1.99-3.36-1.93-1.35-3.25-1.63c-.98-.22-2.9-.33-5.76-.33h-3.15Z"/>
      <path class="cls-2" d="m61.96,408.65h-6.66v-25.16h6.18v3.58c1.06-1.69,2.01-2.8,2.85-3.34s1.81-.81,2.88-.81c1.52,0,2.98.42,4.38,1.26l-2.06,5.8c-1.12-.73-2.16-1.09-3.13-1.09s-1.72.26-2.37.77-1.16,1.44-1.53,2.78c-.37,1.34-.56,4.15-.56,8.43v7.77Z"/>
      <path class="cls-2" d="m74.47,408.65v-25.16h6.66v25.16h-6.66Z"/>
      <path class="cls-2" d="m94.87,408.65l-10.14-25.16h6.99l4.74,12.84,1.37,4.29c.36-1.09.59-1.81.69-2.16.22-.71.46-1.42.71-2.13l4.79-12.84h6.85l-10,25.16h-5.99Z"/>
      <path class="cls-2" d="m137.82,408.65h-6.66v-12.84c0-2.72-.14-4.47-.43-5.27s-.75-1.42-1.38-1.86c-.64-.44-1.41-.66-2.31-.66-1.15,0-2.19.32-3.1.95s-1.55,1.47-1.88,2.51c-.34,1.04-.51,2.97-.51,5.78v11.4h-6.66v-25.16h6.18v3.7c2.2-2.84,4.96-4.26,8.29-4.26,1.47,0,2.81.26,4.03.79s2.13,1.21,2.76,2.03,1.06,1.75,1.31,2.8c.24,1.04.37,2.53.37,4.48v15.64Z"/>
      <path class="cls-2" d="m158.15,408.65v-34.73h23.81v5.88h-16.8v8.22h14.5v5.88h-14.5v14.76h-7.01Z"/>
      <path class="cls-2" d="m187.69,408.65v-25.16h6.66v25.16h-6.66Z"/>
      <path class="cls-2" d="m224.05,408.65h-6.66v-12.84c0-2.72-.14-4.47-.43-5.27s-.75-1.42-1.38-1.86c-.64-.44-1.41-.66-2.31-.66-1.15,0-2.19.32-3.1.95s-1.55,1.47-1.88,2.51c-.34,1.04-.51,2.97-.51,5.78v11.4h-6.66v-25.16h6.18v3.7c2.2-2.84,4.96-4.26,8.29-4.26,1.47,0,2.81.26,4.03.79s2.13,1.21,2.76,2.03,1.06,1.75,1.31,2.8c.24,1.04.37,2.53.37,4.48v15.64Z"/>
      <path class="cls-2" d="m242.34,383.5v5.31h-4.55v10.14c0,2.05.04,3.25.13,3.59.08.34.28.62.59.84.31.22.68.33,1.13.33.62,0,1.51-.21,2.68-.64l.57,5.16c-1.55.66-3.3,1-5.26,1-1.2,0-2.28-.2-3.25-.61s-1.67-.92-2.12-1.56c-.45-.64-.76-1.5-.93-2.59-.14-.77-.21-2.34-.21-4.69v-10.97h-3.06v-5.31h3.06v-5l6.68-3.89v8.88h4.55Z"/>
      <path class="cls-2" d="m261.53,400.65l6.63,1.11c-.85,2.43-2.2,4.28-4.04,5.55-1.84,1.27-4.14,1.91-6.91,1.91-4.37,0-7.61-1.43-9.71-4.29-1.66-2.29-2.49-5.18-2.49-8.67,0-4.17,1.09-7.44,3.27-9.8s4.94-3.54,8.27-3.54c3.74,0,6.7,1.23,8.86,3.71s3.2,6.26,3.1,11.36h-16.68c.05,1.97.58,3.51,1.61,4.61s2.31,1.65,3.84,1.65c1.04,0,1.92-.28,2.63-.85s1.25-1.48,1.61-2.75Zm.38-6.73c-.05-1.93-.54-3.39-1.49-4.4s-2.1-1.5-3.46-1.5c-1.45,0-2.65.53-3.6,1.59s-1.41,2.5-1.4,4.31h9.95Z"/>
      <path class="cls-2" d="m295.88,390.93l-6.56,1.18c-.22-1.31-.72-2.3-1.51-2.96-.78-.66-1.8-1-3.04-1-1.66,0-2.98.57-3.97,1.72s-1.48,3.06-1.48,5.75c0,2.99.5,5.09,1.51,6.33,1,1.23,2.35,1.85,4.04,1.85,1.26,0,2.3-.36,3.1-1.08s1.37-1.95,1.71-3.71l6.54,1.11c-.68,3-1.98,5.27-3.91,6.8s-4.51,2.3-7.75,2.3c-3.68,0-6.61-1.16-8.8-3.48-2.19-2.32-3.28-5.54-3.28-9.64s1.1-7.39,3.29-9.7,5.16-3.47,8.91-3.47c3.06,0,5.5.66,7.31,1.98s3.11,3.33,3.9,6.03Z"/>
      <path class="cls-2" d="m307.56,373.92v12.77c2.15-2.51,4.71-3.77,7.7-3.77,1.53,0,2.91.28,4.15.85s2.16,1.3,2.78,2.18,1.05,1.86,1.28,2.94.34,2.74.34,5v14.76h-6.66v-13.29c0-2.64-.13-4.31-.38-5.02s-.7-1.28-1.34-1.7c-.64-.42-1.44-.63-2.41-.63-1.11,0-2.09.27-2.96.81s-1.5,1.35-1.91,2.43c-.4,1.08-.6,2.68-.6,4.8v12.6h-6.66v-34.73h6.66Z"/>
      <path class="cls-3" d="m194.28,374.7c-.6-.42-1.18-.87-1.77-1.31-.72-.53-1.43-1.07-2.15-1.61-.37-.28-.74-.56-1.11-.84-.22-.17-.45-.24-.67-.22-.23,0-.46.08-.68.25-.29.23-.57.46-.87.66-.18.12-.26.28-.31.48l-.05.04v6.97l.05.04c.05.19.13.36.31.48.3.2.59.43.87.66.22.18.45.26.68.25.23.02.45-.05.67-.22.37-.28.74-.56,1.11-.84.72-.54,1.43-1.07,2.15-1.61.59-.44,1.17-.89,1.77-1.31.32-.22.45-.59.44-.94.02-.36-.12-.72-.44-.94Z"/>
      <path class="cls-3" d="m74.21,374.7c.6-.42,1.18-.87,1.77-1.31.72-.53,1.43-1.07,2.15-1.61.37-.28.74-.56,1.11-.84.22-.17.45-.24.67-.22.23,0,.46.08.68.25.29.23.57.46.87.66.18.12.26.28.31.48l.05.04v1.36s0,4.24,0,4.24v1.36l-.05.04c-.05.19-.13.36-.31.48-.3.2-.59.43-.87.66-.22.18-.45.26-.68.25-.23.02-.45-.05-.67-.22-.37-.28-.74-.56-1.11-.84-.72-.54-1.43-1.07-2.15-1.61-.59-.44-1.17-.89-1.77-1.31-.32-.22-.45-.59-.44-.94-.02-.36.12-.72.44-.94Z"/>
    </g>
  </g>
</svg>