<?xml version="1.0" encoding="iso-8859-1"?>
<!-- Uploaded to: SVG Repo, www.svgrepo.com, Generator: SVG Repo Mixer Tools -->
<svg height="800px" width="800px" version="1.1" id="Layer_1" xmlns="http://www.w3.org/2000/svg" xmlns:xlink="http://www.w3.org/1999/xlink" 
	 viewBox="0 0 512 512" xml:space="preserve">
<path style="fill:#BCBEC0;" d="M495.304,322.759h-71.229c-9.22,0-16.696-7.475-16.696-16.696V205.938
	c0-9.22,7.475-16.696,16.696-16.696h71.229c9.22,0,16.696,7.475,16.696,16.696v100.126C512,315.284,504.525,322.759,495.304,322.759
	z"/>
<path style="fill:#808285;" d="M407.379,256v50.064c0,9.22,7.475,16.696,16.696,16.696h71.229c9.22,0,16.696-7.475,16.696-16.696
	V256H407.379z"/>
<path style="fill:#F1F2F2;" d="M424.075,402.197H16.696C7.475,402.197,0,394.722,0,385.501V126.498
	c0-9.22,7.475-16.696,16.696-16.696h407.379c9.22,0,16.696,7.475,16.696,16.696V385.5
	C440.771,394.722,433.296,402.197,424.075,402.197z"/>
<path style="fill:#BCBEC0;" d="M0,256v129.501c0,9.22,7.475,16.696,16.696,16.696h407.379c9.22,0,16.696-7.475,16.696-16.696V256H0z
	"/>
<path style="fill:#F59D00;" d="M255.997,346.545H72.348c-9.22,0-16.696-7.475-16.696-16.696V182.151
	c0-9.22,7.475-16.696,16.696-16.696h183.649c9.222,0,16.696,7.475,16.696,16.696v147.698
	C272.691,339.07,265.217,346.545,255.997,346.545z"/>
<path style="fill:#E87E04;" d="M55.652,256v73.849c0,9.22,7.475,16.696,16.696,16.696h183.649c9.222,0,16.696-7.475,16.696-16.696
	V256H55.652z"/>
</svg>