<svg width="82" height="42" viewBox="0 0 82 42" fill="none" xmlns="http://www.w3.org/2000/svg">
    <path d="M6.92047 17.777C7.59468 17.7472 8.26535 17.8905 8.86979 18.1933C9.47423 18.4962 9.9927 18.9489 10.3767 19.5089C11.2765 20.927 11.707 22.5969 11.606 24.2778C11.7165 25.9866 11.2678 27.6848 10.3288 29.1111C9.92731 29.6609 9.39914 30.1037 8.78999 30.4013C8.18084 30.6989 7.50903 30.8422 6.83267 30.8189C6.17478 30.8456 5.5201 30.7133 4.9231 30.433C4.3261 30.1528 3.80404 29.7327 3.40037 29.2078H3.19284L2.62611 30.5853H0V13.1047H3.40037V17.1325C3.40037 17.6481 3.40037 18.4697 3.27266 19.6056H3.40037C3.77285 19.0123 4.29544 18.53 4.91423 18.2086C5.53302 17.8871 6.22558 17.7381 6.92047 17.777ZM5.83491 20.5158C5.487 20.4888 5.13783 20.5481 4.81783 20.6885C4.49784 20.8289 4.21673 21.0462 3.99903 21.3214C3.54774 22.0976 3.33909 22.9933 3.40037 23.8911V24.2778C3.32731 25.2655 3.53205 26.254 3.99104 27.1295C4.20403 27.4241 4.48826 27.6588 4.81663 27.8111C5.14501 27.9634 5.50657 28.0282 5.86684 27.9995C6.20413 28.0039 6.53637 27.9164 6.82855 27.7463C7.12074 27.5762 7.36206 27.3297 7.52711 27.0328C7.99413 26.1711 8.20998 25.1936 8.14971 24.2133C8.21521 23.2481 7.99874 22.2846 7.52711 21.4422C7.34875 21.1531 7.09901 20.9157 6.80235 20.7533C6.5057 20.5909 6.17233 20.5091 5.83491 20.5158Z" fill="white"/>
    <path d="M16.954 30.5449H13.5695V18.0186H16.9619L16.954 30.5449Z" fill="white"/>
    <path d="M30.9864 30.4402H27.602V23.1177C27.6509 22.4077 27.4838 21.6994 27.1231 21.0877C26.9448 20.8559 26.712 20.6726 26.4458 20.5544C26.1796 20.4362 25.8884 20.387 25.5985 20.4111C25.2034 20.3758 24.806 20.4457 24.446 20.6139C24.086 20.7821 23.7761 21.0427 23.5471 21.3697C23.0493 22.3481 22.831 23.4471 22.9166 24.5436V30.4402H19.5242V17.9139H22.1104L22.5653 19.525H22.7569C23.1401 18.9146 23.6963 18.4346 24.3533 18.1475C25.0638 17.8283 25.8346 17.6689 26.6123 17.6802C27.2048 17.6408 27.799 17.7249 28.3579 17.9272C28.9168 18.1295 29.4284 18.4458 29.861 18.8564C30.6669 19.8011 31.0712 21.0283 30.9864 22.2719V30.4402Z" fill="white"/>
    <path d="M41.443 30.545L40.7885 28.8372H40.7087C40.2494 29.4722 39.6476 29.9884 38.9526 30.3436C38.1944 30.6591 37.3774 30.8047 36.558 30.7705C36.0438 30.7981 35.5294 30.721 35.0453 30.5439C34.5613 30.3668 34.1175 30.0932 33.7403 29.7394C33.3865 29.3417 33.1146 28.8769 32.9406 28.3721C32.7665 27.8673 32.6938 27.3326 32.7266 26.7991C32.6865 26.2305 32.7925 25.6611 33.0344 25.146C33.2763 24.6309 33.646 24.1875 34.1075 23.8588C35.3872 23.125 36.843 22.7626 38.314 22.8116L40.4692 22.7472V22.1913C40.5017 21.9296 40.4737 21.6638 40.3874 21.4148C40.3011 21.1658 40.1587 20.9404 39.9716 20.7562C39.7845 20.5721 39.5576 20.4341 39.3088 20.3533C39.06 20.2724 38.796 20.2508 38.5375 20.2902C37.3225 20.3476 36.1323 20.6575 35.0414 21.2005L33.892 18.8886C35.3715 18.1191 37.017 17.7316 38.6812 17.7608C40.0452 17.6701 41.3985 18.057 42.5126 18.8563C42.9756 19.27 43.3371 19.7866 43.5684 20.3654C43.7997 20.9441 43.8946 21.5692 43.8456 22.1913V30.545H41.443ZM40.4453 24.7369L39.1122 24.7852C38.3454 24.7589 37.5861 24.9456 36.9172 25.3249C36.6764 25.4883 36.4825 25.7128 36.355 25.9759C36.2275 26.2389 36.1709 26.5312 36.1908 26.8233C36.1908 27.79 36.7416 28.2652 37.8351 28.2652C38.5269 28.2992 39.2039 28.056 39.7189 27.5886C39.9551 27.3512 40.1396 27.0666 40.2605 26.7531C40.3815 26.4396 40.4362 26.1041 40.4213 25.768L40.4453 24.7369Z" fill="white"/>
    <path d="M57.8462 30.4403H54.4618V23.1178C54.4618 21.3133 53.7913 20.4111 52.4583 20.4111C52.0617 20.3775 51.6633 20.4499 51.3032 20.621C50.9431 20.7921 50.634 21.0559 50.4069 21.3858C49.9124 22.3597 49.6941 23.4525 49.7763 24.5436V30.4403H46.3839V13H49.7763V16.5525C49.7763 16.8344 49.7763 17.4789 49.6965 18.5019L49.6167 19.5169H49.8003C50.1754 18.9081 50.7084 18.4145 51.3415 18.0893C51.9746 17.7642 52.6837 17.6199 53.3922 17.6722C53.9972 17.6291 54.6046 17.7128 55.176 17.918C55.7474 18.1232 56.2706 18.4454 56.7128 18.8644C57.5234 19.8037 57.9311 21.0294 57.8462 22.2719V30.4403Z" fill="white"/>
    <path d="M73.6667 30.545L73.0122 28.8373H72.9244C72.4651 29.4723 71.8633 29.9885 71.1683 30.3436C70.4101 30.6591 69.5931 30.8048 68.7737 30.7706C68.2607 30.7989 67.7472 30.7222 67.2644 30.545C66.7815 30.3678 66.3392 30.0938 65.964 29.7395C65.6047 29.3449 65.3282 28.8809 65.1512 28.3756C64.9743 27.8703 64.9005 27.3341 64.9343 26.7992C64.8942 26.2306 65.0002 25.6612 65.2422 25.146C65.4841 24.6309 65.8537 24.1876 66.3152 23.8589C67.5832 23.1323 69.0243 22.7701 70.4819 22.8117L72.637 22.7473V22.1914C72.6713 21.9293 72.6444 21.6628 72.5587 21.413C72.473 21.1632 72.3307 20.937 72.1431 20.7525C71.9556 20.5679 71.728 20.43 71.4784 20.3498C71.2288 20.2696 70.9641 20.2492 70.7054 20.2903C69.4903 20.3476 68.3001 20.6575 67.2092 21.2006L66.0917 18.8886C67.5706 18.1173 69.2165 17.7297 70.881 17.7609C72.2453 17.6675 73.5994 18.0547 74.7124 18.8564C75.1754 19.2701 75.5368 19.7867 75.7682 20.3655C75.9995 20.9442 76.0944 21.5693 76.0454 22.1914V30.545H73.6667ZM72.637 24.737L71.328 24.7853C70.5611 24.759 69.8018 24.9457 69.1329 25.325C68.8921 25.4884 68.6982 25.7129 68.5707 25.976C68.4432 26.239 68.3866 26.5312 68.4065 26.8234C68.4065 27.79 68.9573 28.2653 70.0508 28.2653C70.7426 28.2993 71.4197 28.0561 71.9346 27.5886C72.1708 27.3512 72.3553 27.0667 72.4762 26.7532C72.5972 26.4397 72.652 26.1042 72.637 25.7681V24.737Z" fill="#1357EB"/>
    <path d="M81.9281 30.5449H78.5438V18.0186H81.9281V30.5449Z" fill="#1357EB"/>
    <path d="M15.2618 16.1497C16.0949 16.1497 16.7704 15.4681 16.7704 14.6272C16.7704 13.7864 16.0949 13.1047 15.2618 13.1047C14.4286 13.1047 13.7531 13.7864 13.7531 14.6272C13.7531 15.4681 14.4286 16.1497 15.2618 16.1497Z" fill="#1357EB"/>
    <path d="M80.2359 16.1497C81.0691 16.1497 81.7446 15.4681 81.7446 14.6272C81.7446 13.7864 81.0691 13.1047 80.2359 13.1047C79.4028 13.1047 78.7273 13.7864 78.7273 14.6272C78.7273 15.4681 79.4028 16.1497 80.2359 16.1497Z" fill="#1357EB"/>
    <path d="M61.6776 30.545C62.5108 30.545 63.1862 29.8634 63.1862 29.0225C63.1862 28.1816 62.5108 27.5 61.6776 27.5C60.8444 27.5 60.169 28.1816 60.169 29.0225C60.169 29.8634 60.8444 30.545 61.6776 30.545Z" fill="#1357EB"/>
    <path d="M5.11046 7.06352C5.11046 6.74795 4.99291 6.50205 4.7578 6.32582C4.52696 6.14959 4.11872 5.96721 3.53308 5.77869C2.94744 5.59016 2.46867 5.40779 2.09676 5.23156C0.887011 4.66189 0.282133 3.8791 0.282133 2.8832C0.282133 2.3873 0.43175 1.95082 0.730982 1.57377C1.03449 1.19262 1.46196 0.897541 2.01341 0.688525C2.56485 0.47541 3.18469 0.368852 3.87292 0.368852C4.54406 0.368852 5.14466 0.483607 5.67473 0.713115C6.20907 0.942623 6.62372 1.27049 6.91868 1.69672C7.21364 2.11885 7.36112 2.60246 7.36112 3.14754H5.11688C5.11688 2.78279 4.99932 2.5 4.76421 2.29918C4.53337 2.09836 4.21918 1.99795 3.82163 1.99795C3.4198 1.99795 3.10133 2.08402 2.86622 2.25615C2.63538 2.42418 2.51997 2.63934 2.51997 2.90164C2.51997 3.13115 2.64821 3.34016 2.90469 3.52869C3.16118 3.71311 3.61216 3.90574 4.25765 4.10656C4.90314 4.30328 5.43321 4.51639 5.84786 4.7459C6.8567 5.30328 7.36112 6.07172 7.36112 7.05123C7.36112 7.83402 7.05334 8.44877 6.43777 8.89549C5.82221 9.34221 4.97795 9.56557 3.90498 9.56557C3.14835 9.56557 2.46226 9.43647 1.84669 9.17828C1.2354 8.91598 0.77373 8.55943 0.461673 8.10861C0.153891 7.65369 0 7.13115 0 6.54098H2.25707C2.25707 7.02049 2.38531 7.375 2.6418 7.60451C2.90256 7.82992 3.32362 7.94262 3.90498 7.94262C4.27689 7.94262 4.56971 7.8668 4.78345 7.71516C5.00146 7.55943 5.11046 7.34221 5.11046 7.06352Z" fill="white"/>
    <path d="M12.3241 9.44262C12.2472 9.30738 12.1788 9.10861 12.1189 8.84631C11.7214 9.32582 11.1656 9.56557 10.4518 9.56557C9.79773 9.56557 9.24201 9.37705 8.78461 9C8.32721 8.61885 8.09851 8.14139 8.09851 7.56762C8.09851 6.84631 8.37637 6.30123 8.93209 5.93238C9.48781 5.56352 10.2957 5.3791 11.3559 5.3791H12.0227V5.02869C12.0227 4.41803 11.747 4.1127 11.1956 4.1127C10.6826 4.1127 10.4261 4.35451 10.4261 4.83811H8.26523C8.26523 4.19467 8.5495 3.67213 9.11804 3.27049C9.69086 2.86885 10.4197 2.66803 11.3046 2.66803C12.1894 2.66803 12.8884 2.875 13.4013 3.28893C13.9143 3.70287 14.1772 4.27049 14.19 4.9918V7.93648C14.1986 8.54713 14.2969 9.01434 14.485 9.33811V9.44262H12.3241ZM10.9711 8.09016C11.2405 8.09016 11.4627 8.03484 11.638 7.92418C11.8175 7.81352 11.9458 7.68852 12.0227 7.54918V6.48566H11.3943C10.642 6.48566 10.2658 6.80943 10.2658 7.45697C10.2658 7.64549 10.3321 7.79918 10.4646 7.91803C10.5971 8.03279 10.766 8.09016 10.9711 8.09016Z" fill="white"/>
    <path d="M17.4346 2.79098L17.5051 3.57172C17.9967 2.96926 18.6571 2.66803 19.4864 2.66803C20.3628 2.66803 20.9548 3.00205 21.2626 3.67008C21.7328 3.00205 22.4125 2.66803 23.3017 2.66803C24.7081 2.66803 25.4305 3.48361 25.469 5.11475V9.44262H23.3017V5.24385C23.3017 4.90369 23.2418 4.65574 23.1221 4.5C23.0024 4.34426 22.7844 4.26639 22.4681 4.26639C22.0406 4.26639 21.7221 4.44877 21.5127 4.81352L21.5191 4.89959V9.44262H19.3518V5.25615C19.3518 4.90779 19.2941 4.65574 19.1787 4.5C19.0632 4.34426 18.8431 4.26639 18.5182 4.26639C18.1036 4.26639 17.7872 4.44877 17.5692 4.81352V9.44262H15.4083V2.79098H17.4346Z" fill="white"/>
    <path d="M33.1443 6.16598C33.1443 7.19877 32.9006 8.02459 32.4133 8.64344C31.9302 9.2582 31.2762 9.56557 30.4512 9.56557C29.8142 9.56557 29.2906 9.34221 28.8802 8.89549V12H26.7193V2.79098H28.7391L28.8033 3.40574C29.2179 2.91393 29.7629 2.66803 30.4384 2.66803C31.2933 2.66803 31.958 2.97131 32.4325 3.57787C32.907 4.18033 33.1443 5.01025 33.1443 6.06762V6.16598ZM30.9834 6.03688C30.9834 4.85656 30.6243 4.26639 29.9062 4.26639C29.3932 4.26639 29.0512 4.44262 28.8802 4.79508V7.41393C29.0683 7.78279 29.4146 7.96721 29.919 7.96721C30.6072 7.96721 30.962 7.39754 30.9834 6.2582V6.03688Z" fill="white"/>
    <path d="M36.3824 9.44262H34.2151V0H36.3824V9.44262Z" fill="white"/>
    <path d="M41.0761 9.56557C40.0117 9.56557 39.1503 9.26229 38.492 8.65574C37.8337 8.04508 37.5045 7.25205 37.5045 6.27664V6.10451C37.5045 5.42418 37.6349 4.82377 37.8957 4.30328C38.1607 3.78279 38.5454 3.38115 39.0498 3.09836C39.5543 2.81148 40.1527 2.66803 40.8452 2.66803C41.8199 2.66803 42.5893 2.95902 43.1536 3.54098C43.7179 4.11885 44 4.92623 44 5.96311V6.76844H39.7039C39.7808 7.14139 39.9497 7.43443 40.2104 7.64754C40.4712 7.86066 40.8089 7.96721 41.2236 7.96721C41.9075 7.96721 42.4419 7.7377 42.8266 7.27869L43.814 8.39754C43.5447 8.7541 43.1622 9.03893 42.6663 9.25205C42.1747 9.46107 41.6446 9.56557 41.0761 9.56557ZM40.8324 4.26639C40.1997 4.26639 39.8236 4.66803 39.7039 5.47131H41.884V5.31148C41.8926 4.97951 41.8049 4.72336 41.6211 4.54303C41.4373 4.35861 41.1744 4.26639 40.8324 4.26639Z" fill="white"/>
</svg>
